<?xml version="1.0" encoding="UTF-8" standalone="no"?>
<!DOCTYPE svg PUBLIC "-//W3C//DTD SVG 1.1//EN"
 "http://www.w3.org/Graphics/SVG/1.1/DTD/svg11.dtd">
<!-- Generated by graphviz version 2.38.0 (20140413.2041)
 -->
<!-- Title: G Pages: 1 -->
<svg width="684pt" height="1084pt"
 viewBox="0.00 0.00 683.67 1084.00" xmlns="http://www.w3.org/2000/svg" xmlns:xlink="http://www.w3.org/1999/xlink">
<g id="graph0" class="graph" transform="scale(1 1) rotate(0) translate(4 1080)">
<title>G</title>
<polygon fill="white" stroke="none" points="-4,4 -4,-1080 679.671,-1080 679.671,4 -4,4"/>
<g id="clust1" class="cluster"><title>cluster_Global</title>
<path fill="none" stroke="gray" d="M20,-44C20,-44 655.671,-44 655.671,-44 661.671,-44 667.671,-50 667.671,-56 667.671,-56 667.671,-1056 667.671,-1056 667.671,-1062 661.671,-1068 655.671,-1068 655.671,-1068 20,-1068 20,-1068 14,-1068 8,-1062 8,-1056 8,-1056 8,-56 8,-56 8,-50 14,-44 20,-44"/>
<text text-anchor="middle" x="337.835" y="-1055.2" font-family="Times,serif" font-size="11.00" fill="gray">Global</text>
</g>
<g id="clust2" class="cluster"><title>cluster_\TinCan</title>
<path fill="none" stroke="gray" d="M28,-52C28,-52 647.671,-52 647.671,-52 653.671,-52 659.671,-58 659.671,-64 659.671,-64 659.671,-1029 659.671,-1029 659.671,-1035 653.671,-1041 647.671,-1041 647.671,-1041 28,-1041 28,-1041 22,-1041 16,-1035 16,-1029 16,-1029 16,-64 16,-64 16,-58 22,-52 28,-52"/>
<text text-anchor="middle" x="337.835" y="-1028.2" font-family="Times,serif" font-size="11.00" fill="gray">TinCan</text>
</g>
<!-- \\TinCan\\About -->
<g id="node1" class="node"><title>\\TinCan\\About</title>
<polygon fill="none" stroke="black" points="364.835,-1014 310.835,-1014 310.835,-978 364.835,-978 364.835,-1014"/>
<text text-anchor="middle" x="337.835" y="-992.7" font-family="Courier,monospace" font-size="11.00">About</text>
</g>
<!-- \\TinCan\\VersionableInterface -->
<g id="node34" class="node"><title>\\TinCan\\VersionableInterface</title>
<polygon fill="none" stroke="black" points="185.234,-636 37.1914,-636 37.1914,-600 185.234,-600 185.234,-636"/>
<text text-anchor="middle" x="111.213" y="-614.7" font-family="Courier,monospace" font-size="11.00">VersionableInterface</text>
</g>
<!-- \\TinCan\\About&#45;&gt;\\TinCan\\VersionableInterface -->
<g id="edge1" class="edge"><title>\\TinCan\\About&#45;&gt;\\TinCan\\VersionableInterface</title>
<path fill="none" stroke="black" stroke-dasharray="1,5" d="M310.613,-990.31C297.212,-986.269 281.451,-979.621 270.426,-969 173.299,-875.432 130.994,-711.319 117.429,-645.985"/>
<polygon fill="none" stroke="black" points="120.828,-645.136 115.426,-636.022 113.965,-646.515 120.828,-645.136"/>
</g>
<!-- \\TinCan\\Activity -->
<g id="node2" class="node"><title>\\TinCan\\Activity</title>
<polygon fill="none" stroke="black" points="372.144,-238 303.527,-238 303.527,-202 372.144,-202 372.144,-238"/>
<text text-anchor="middle" x="337.835" y="-216.7" font-family="Courier,monospace" font-size="11.00">Activity</text>
</g>
<!-- \\TinCan\\ComparableInterface -->
<g id="node31" class="node"><title>\\TinCan\\ComparableInterface</title>
<polygon fill="none" stroke="black" points="182.134,-501 40.2919,-501 40.2919,-465 182.134,-465 182.134,-501"/>
<text text-anchor="middle" x="111.213" y="-479.7" font-family="Courier,monospace" font-size="11.00">ComparableInterface</text>
</g>
<!-- \\TinCan\\Activity&#45;&gt;\\TinCan\\ComparableInterface -->
<g id="edge4" class="edge"><title>\\TinCan\\Activity&#45;&gt;\\TinCan\\ComparableInterface</title>
<path fill="none" stroke="black" stroke-dasharray="1,5" d="M303.322,-229.233C292.079,-233.422 279.982,-239.222 270.426,-247 197.77,-306.137 145.842,-407.415 123.874,-455.763"/>
<polygon fill="none" stroke="black" points="120.644,-454.412 119.763,-464.97 127.036,-457.266 120.644,-454.412"/>
</g>
<!-- \\TinCan\\StatementTargetInterface -->
<g id="node33" class="node"><title>\\TinCan\\StatementTargetInterface</title>
<polygon fill="none" stroke="black" points="198.639,-265 23.7866,-265 23.7866,-229 198.639,-229 198.639,-265"/>
<text text-anchor="middle" x="111.213" y="-243.7" font-family="Courier,monospace" font-size="11.00">StatementTargetInterface</text>
</g>
<!-- \\TinCan\\Activity&#45;&gt;\\TinCan\\StatementTargetInterface -->
<g id="edge3" class="edge"><title>\\TinCan\\Activity&#45;&gt;\\TinCan\\StatementTargetInterface</title>
<path fill="none" stroke="black" stroke-dasharray="1,5" d="M303.207,-224.042C278.033,-227.068 242.259,-231.368 208.466,-235.43"/>
<polygon fill="none" stroke="black" points="208.039,-231.956 198.528,-236.625 208.875,-238.906 208.039,-231.956"/>
</g>
<!-- \\TinCan\\Activity&#45;&gt;\\TinCan\\VersionableInterface -->
<g id="edge2" class="edge"><title>\\TinCan\\Activity&#45;&gt;\\TinCan\\VersionableInterface</title>
<path fill="none" stroke="black" stroke-dasharray="1,5" d="M303.489,-227.014C291.59,-231.048 279.018,-237.32 270.426,-247 189.976,-337.636 253.36,-401.976 198.426,-510 182.611,-541.099 156.944,-571.716 137.721,-592.364"/>
<polygon fill="none" stroke="black" points="135.041,-590.103 130.703,-599.769 140.122,-594.918 135.041,-590.103"/>
</g>
<!-- \\TinCan\\ActivityDefinition -->
<g id="node3" class="node"><title>\\TinCan\\ActivityDefinition</title>
<polygon fill="none" stroke="black" points="405.155,-960 270.516,-960 270.516,-924 405.155,-924 405.155,-960"/>
<text text-anchor="middle" x="337.835" y="-938.7" font-family="Courier,monospace" font-size="11.00">ActivityDefinition</text>
</g>
<!-- \\TinCan\\ActivityDefinition&#45;&gt;\\TinCan\\VersionableInterface -->
<g id="edge5" class="edge"><title>\\TinCan\\ActivityDefinition&#45;&gt;\\TinCan\\VersionableInterface</title>
<path fill="none" stroke="black" stroke-dasharray="1,5" d="M282.68,-923.892C278.286,-921.285 274.123,-918.334 270.426,-915 185.057,-838.025 137.456,-703.933 119.995,-645.991"/>
<polygon fill="none" stroke="black" points="123.262,-644.695 117.083,-636.089 116.547,-646.67 123.262,-644.695"/>
</g>
<!-- \\TinCan\\ActivityProfile -->
<g id="node4" class="node"><title>\\TinCan\\ActivityProfile</title>
<polygon fill="none" stroke="black" points="621.974,-582 506.942,-582 506.942,-546 621.974,-546 621.974,-582"/>
<text text-anchor="middle" x="564.458" y="-560.7" font-family="Courier,monospace" font-size="11.00">ActivityProfile</text>
</g>
<!-- \\TinCan\\Document -->
<g id="node11" class="node"><title>\\TinCan\\Document</title>
<polygon fill="none" stroke="black" points="378.846,-164 296.825,-164 296.825,-128 378.846,-128 378.846,-164"/>
<text text-anchor="start" x="304.83" y="-148.2" font-family="Courier,monospace" font-size="11.00">«abstract»</text>
<text text-anchor="start" x="311.431" y="-137.2" font-family="Courier,monospace" font-size="11.00">Document</text>
</g>
<!-- \\TinCan\\ActivityProfile&#45;&gt;\\TinCan\\Document -->
<g id="edge6" class="edge"><title>\\TinCan\\ActivityProfile&#45;&gt;\\TinCan\\Document</title>
<path fill="none" stroke="black" d="M506.907,-555.709C495.77,-551.684 485.113,-545.745 477.245,-537 368.407,-416.02 505,-306.573 405.245,-178 400.607,-172.022 394.568,-167.098 388.024,-163.06"/>
<polygon fill="none" stroke="black" points="389.329,-159.786 378.871,-158.088 385.988,-165.937 389.329,-159.786"/>
</g>
<!-- \\TinCan\\Agent -->
<g id="node5" class="node"><title>\\TinCan\\Agent</title>
<polygon fill="none" stroke="black" points="364.835,-346 310.835,-346 310.835,-310 364.835,-310 364.835,-346"/>
<text text-anchor="middle" x="337.835" y="-324.7" font-family="Courier,monospace" font-size="11.00">Agent</text>
</g>
<!-- \\TinCan\\Agent&#45;&gt;\\TinCan\\ComparableInterface -->
<g id="edge9" class="edge"><title>\\TinCan\\Agent&#45;&gt;\\TinCan\\ComparableInterface</title>
<path fill="none" stroke="black" stroke-dasharray="1,5" d="M310.617,-339.08C298.118,-344.748 283.153,-352.111 270.426,-360 222.108,-389.953 171.015,-431.779 140.374,-458.119"/>
<polygon fill="none" stroke="black" points="137.937,-455.599 132.666,-464.79 142.518,-460.892 137.937,-455.599"/>
</g>
<!-- \\TinCan\\Agent&#45;&gt;\\TinCan\\StatementTargetInterface -->
<g id="edge8" class="edge"><title>\\TinCan\\Agent&#45;&gt;\\TinCan\\StatementTargetInterface</title>
<path fill="none" stroke="black" stroke-dasharray="1,5" d="M310.629,-318.55C276.882,-306.38 217.214,-284.864 172.098,-268.595"/>
<polygon fill="none" stroke="black" points="173.013,-265.204 162.418,-265.104 170.638,-271.789 173.013,-265.204"/>
</g>
<!-- \\TinCan\\Agent&#45;&gt;\\TinCan\\VersionableInterface -->
<g id="edge7" class="edge"><title>\\TinCan\\Agent&#45;&gt;\\TinCan\\VersionableInterface</title>
<path fill="none" stroke="black" stroke-dasharray="1,5" d="M310.663,-342.525C297.436,-350.792 281.82,-362.072 270.426,-375 225.464,-426.014 235.795,-453.188 198.426,-510 179.019,-539.504 153.427,-570.785 135.178,-592.045"/>
<polygon fill="none" stroke="black" points="132.47,-589.826 128.572,-599.678 137.763,-594.407 132.47,-589.826"/>
</g>
<!-- \\TinCan\\AgentAccount -->
<g id="node6" class="node"><title>\\TinCan\\AgentAccount</title>
<polygon fill="none" stroke="black" points="385.549,-582 290.122,-582 290.122,-546 385.549,-546 385.549,-582"/>
<text text-anchor="middle" x="337.835" y="-560.7" font-family="Courier,monospace" font-size="11.00">AgentAccount</text>
</g>
<!-- \\TinCan\\AgentAccount&#45;&gt;\\TinCan\\ComparableInterface -->
<g id="edge11" class="edge"><title>\\TinCan\\AgentAccount&#45;&gt;\\TinCan\\ComparableInterface</title>
<path fill="none" stroke="black" stroke-dasharray="1,5" d="M290.021,-547.118C255.793,-534.776 209.089,-517.934 172.136,-504.609"/>
<polygon fill="none" stroke="black" points="173.074,-501.226 162.479,-501.126 170.699,-507.811 173.074,-501.226"/>
</g>
<!-- \\TinCan\\AgentAccount&#45;&gt;\\TinCan\\VersionableInterface -->
<g id="edge10" class="edge"><title>\\TinCan\\AgentAccount&#45;&gt;\\TinCan\\VersionableInterface</title>
<path fill="none" stroke="black" stroke-dasharray="1,5" d="M290.021,-575.254C262.638,-581.837 227.271,-590.34 195.3,-598.026"/>
<polygon fill="none" stroke="black" points="194.405,-594.641 185.5,-600.382 196.041,-601.447 194.405,-594.641"/>
</g>
<!-- \\TinCan\\AgentProfile -->
<g id="node7" class="node"><title>\\TinCan\\AgentProfile</title>
<polygon fill="none" stroke="black" points="612.171,-744 516.745,-744 516.745,-708 612.171,-708 612.171,-744"/>
<text text-anchor="middle" x="564.458" y="-722.7" font-family="Courier,monospace" font-size="11.00">AgentProfile</text>
</g>
<!-- \\TinCan\\AgentProfile&#45;&gt;\\TinCan\\Document -->
<g id="edge12" class="edge"><title>\\TinCan\\AgentProfile&#45;&gt;\\TinCan\\Document</title>
<path fill="none" stroke="black" d="M516.821,-721.249C502.136,-717.44 487.174,-710.733 477.245,-699 326.243,-520.562 542.876,-366.944 405.245,-178 400.738,-171.813 394.712,-166.77 388.122,-162.674"/>
<polygon fill="none" stroke="black" points="389.336,-159.351 378.878,-157.658 385.998,-165.503 389.336,-159.351"/>
</g>
<!-- \\TinCan\\Attachment -->
<g id="node8" class="node"><title>\\TinCan\\Attachment</title>
<polygon fill="none" stroke="black" points="378.846,-528 296.825,-528 296.825,-492 378.846,-492 378.846,-528"/>
<text text-anchor="middle" x="337.835" y="-506.7" font-family="Courier,monospace" font-size="11.00">Attachment</text>
</g>
<!-- \\TinCan\\Attachment&#45;&gt;\\TinCan\\ComparableInterface -->
<g id="edge14" class="edge"><title>\\TinCan\\Attachment&#45;&gt;\\TinCan\\ComparableInterface</title>
<path fill="none" stroke="black" stroke-dasharray="1,5" d="M296.677,-505.173C267.735,-501.694 227.705,-496.882 192.33,-492.63"/>
<polygon fill="none" stroke="black" points="192.352,-489.108 182.006,-491.389 191.516,-496.058 192.352,-489.108"/>
</g>
<!-- \\TinCan\\Attachment&#45;&gt;\\TinCan\\VersionableInterface -->
<g id="edge13" class="edge"><title>\\TinCan\\Attachment&#45;&gt;\\TinCan\\VersionableInterface</title>
<path fill="none" stroke="black" stroke-dasharray="1,5" d="M296.56,-525.719C287.88,-529.289 278.799,-533.163 270.426,-537 230.467,-555.31 185.994,-578.321 154.401,-595.133"/>
<polygon fill="none" stroke="black" points="152.611,-592.121 145.439,-599.92 155.908,-598.296 152.611,-592.121"/>
</g>
<!-- \\TinCan\\Context -->
<g id="node9" class="node"><title>\\TinCan\\Context</title>
<polygon fill="none" stroke="black" points="369.043,-420 306.628,-420 306.628,-384 369.043,-384 369.043,-420"/>
<text text-anchor="middle" x="337.835" y="-398.7" font-family="Courier,monospace" font-size="11.00">Context</text>
</g>
<!-- \\TinCan\\Context&#45;&gt;\\TinCan\\ComparableInterface -->
<g id="edge16" class="edge"><title>\\TinCan\\Context&#45;&gt;\\TinCan\\ComparableInterface</title>
<path fill="none" stroke="black" stroke-dasharray="1,5" d="M306.542,-412.924C272.141,-425.329 215.166,-445.875 171.779,-461.52"/>
<polygon fill="none" stroke="black" points="170.404,-458.295 162.184,-464.98 172.778,-464.88 170.404,-458.295"/>
</g>
<!-- \\TinCan\\Context&#45;&gt;\\TinCan\\VersionableInterface -->
<g id="edge15" class="edge"><title>\\TinCan\\Context&#45;&gt;\\TinCan\\VersionableInterface</title>
<path fill="none" stroke="black" stroke-dasharray="1,5" d="M306.468,-410.819C294.553,-415.15 281.186,-421.154 270.426,-429 253.715,-441.184 172.023,-542.742 133.019,-591.746"/>
<polygon fill="none" stroke="black" points="130.182,-589.69 126.699,-599.696 135.662,-594.046 130.182,-589.69"/>
</g>
<!-- \\TinCan\\ContextActivities -->
<g id="node10" class="node"><title>\\TinCan\\ContextActivities</title>
<polygon fill="none" stroke="black" points="402.054,-474 273.617,-474 273.617,-438 402.054,-438 402.054,-474"/>
<text text-anchor="middle" x="337.835" y="-452.7" font-family="Courier,monospace" font-size="11.00">ContextActivities</text>
</g>
<!-- \\TinCan\\ContextActivities&#45;&gt;\\TinCan\\ComparableInterface -->
<g id="edge18" class="edge"><title>\\TinCan\\ContextActivities&#45;&gt;\\TinCan\\ComparableInterface</title>
<path fill="none" stroke="black" stroke-dasharray="1,5" d="M273.668,-463.593C248.354,-466.636 218.892,-470.177 192.117,-473.395"/>
<polygon fill="none" stroke="black" points="191.512,-469.943 182.001,-474.611 192.347,-476.893 191.512,-469.943"/>
</g>
<!-- \\TinCan\\ContextActivities&#45;&gt;\\TinCan\\VersionableInterface -->
<g id="edge17" class="edge"><title>\\TinCan\\ContextActivities&#45;&gt;\\TinCan\\VersionableInterface</title>
<path fill="none" stroke="black" stroke-dasharray="1,5" d="M287.365,-474.032C281.517,-476.767 275.743,-479.767 270.426,-483 218.596,-514.512 166.661,-562.799 137.077,-592.276"/>
<polygon fill="none" stroke="black" points="134.263,-590.142 129.697,-599.702 139.229,-595.076 134.263,-590.142"/>
</g>
<!-- \\TinCan\\Extensions -->
<g id="node12" class="node"><title>\\TinCan\\Extensions</title>
<polygon fill="none" stroke="black" points="605.469,-906 523.447,-906 523.447,-870 605.469,-870 605.469,-906"/>
<text text-anchor="middle" x="564.458" y="-884.7" font-family="Courier,monospace" font-size="11.00">Extensions</text>
</g>
<!-- \\TinCan\\Map -->
<g id="node17" class="node"><title>\\TinCan\\Map</title>
<polygon fill="none" stroke="black" points="378.846,-852 296.825,-852 296.825,-816 378.846,-816 378.846,-852"/>
<text text-anchor="start" x="304.83" y="-836.2" font-family="Courier,monospace" font-size="11.00">«abstract»</text>
<text text-anchor="start" x="327.934" y="-825.2" font-family="Courier,monospace" font-size="11.00">Map</text>
</g>
<!-- \\TinCan\\Extensions&#45;&gt;\\TinCan\\Map -->
<g id="edge19" class="edge"><title>\\TinCan\\Extensions&#45;&gt;\\TinCan\\Map</title>
<path fill="none" stroke="black" d="M523.3,-878.346C485.725,-869.313 429.464,-855.787 388.961,-846.05"/>
<polygon fill="none" stroke="black" points="389.565,-842.596 379.024,-843.661 387.929,-849.402 389.565,-842.596"/>
</g>
<!-- \\TinCan\\Extensions&#45;&gt;\\TinCan\\ComparableInterface -->
<g id="edge20" class="edge"><title>\\TinCan\\Extensions&#45;&gt;\\TinCan\\ComparableInterface</title>
<path fill="none" stroke="black" stroke-dasharray="1,5" d="M523.145,-884.658C506.586,-881.191 488.658,-874.354 477.245,-861 335.379,-695.006 570.574,-517.64 405.245,-375 382.561,-355.429 299.052,-366.161 270.426,-375 218.143,-391.143 167.713,-431.147 138.35,-457.673"/>
<polygon fill="none" stroke="black" points="135.63,-455.418 130.642,-464.766 140.371,-460.569 135.63,-455.418"/>
</g>
<!-- \\TinCan\\Group -->
<g id="node13" class="node"><title>\\TinCan\\Group</title>
<polygon fill="none" stroke="black" points="591.458,-852 537.458,-852 537.458,-816 591.458,-816 591.458,-852"/>
<text text-anchor="middle" x="564.458" y="-830.7" font-family="Courier,monospace" font-size="11.00">Group</text>
</g>
<!-- \\TinCan\\Group&#45;&gt;\\TinCan\\Agent -->
<g id="edge21" class="edge"><title>\\TinCan\\Group&#45;&gt;\\TinCan\\Agent</title>
<path fill="none" stroke="black" d="M537.284,-832.872C517.811,-830.573 492.13,-824.195 477.245,-807 345.545,-654.857 525.536,-521.315 405.245,-360 397.654,-349.82 385.972,-342.725 374.51,-337.851"/>
<polygon fill="none" stroke="black" points="375.619,-334.529 365.028,-334.262 373.141,-341.076 375.619,-334.529"/>
</g>
<!-- \\TinCan\\JSONParseErrorException -->
<g id="node14" class="node"><title>\\TinCan\\JSONParseErrorException</title>
<polygon fill="none" stroke="black" points="648.283,-420 480.633,-420 480.633,-384 648.283,-384 648.283,-420"/>
<text text-anchor="middle" x="564.458" y="-398.7" font-family="Courier,monospace" font-size="11.00">JSONParseErrorException</text>
</g>
<!-- \\Exception -->
<g id="node39" class="node"><title>\\Exception</title>
<ellipse fill="none" stroke="black" cx="337.835" cy="-18" rx="40.6162" ry="18"/>
<text text-anchor="middle" x="337.835" y="-13.8" font-family="Times,serif" font-size="14.00" fill="gray">xception</text>
</g>
<!-- \\TinCan\\JSONParseErrorException&#45;&gt;\\Exception -->
<g id="edge22" class="edge"><title>\\TinCan\\JSONParseErrorException&#45;&gt;\\Exception</title>
<path fill="none" stroke="black" d="M487.564,-383.869C483.803,-381.292 480.319,-378.353 477.245,-375 376.681,-265.307 499.005,-163.563 405.245,-48 399.333,-40.713 391.272,-35.1302 382.803,-30.8758"/>
<polygon fill="none" stroke="black" points="384.097,-27.6207 373.537,-26.7629 381.257,-34.0188 384.097,-27.6207"/>
</g>
<!-- \\TinCan\\LanguageMap -->
<g id="node15" class="node"><title>\\TinCan\\LanguageMap</title>
<polygon fill="none" stroke="black" points="608.571,-1014 520.345,-1014 520.345,-978 608.571,-978 608.571,-1014"/>
<text text-anchor="middle" x="564.458" y="-992.7" font-family="Courier,monospace" font-size="11.00">LanguageMap</text>
</g>
<!-- \\TinCan\\LanguageMap&#45;&gt;\\TinCan\\Map -->
<g id="edge23" class="edge"><title>\\TinCan\\LanguageMap&#45;&gt;\\TinCan\\Map</title>
<path fill="none" stroke="black" d="M519.973,-988.498C505.379,-984.46 489.67,-978.312 477.245,-969 431.082,-934.403 449.94,-897.475 405.245,-861 400.062,-856.77 394.128,-853.127 387.987,-850.009"/>
<polygon fill="none" stroke="black" points="389.45,-846.83 378.904,-845.811 386.513,-853.184 389.45,-846.83"/>
</g>
<!-- \\TinCan\\LRSResponse -->
<g id="node16" class="node"><title>\\TinCan\\LRSResponse</title>
<polygon fill="none" stroke="black" points="608.571,-690 520.345,-690 520.345,-654 608.571,-654 608.571,-690"/>
<text text-anchor="middle" x="564.458" y="-668.7" font-family="Courier,monospace" font-size="11.00">LRSResponse</text>
</g>
<!-- \\TinCan\\Map&#45;&gt;\\TinCan\\VersionableInterface -->
<g id="edge24" class="edge"><title>\\TinCan\\Map&#45;&gt;\\TinCan\\VersionableInterface</title>
<path fill="none" stroke="black" stroke-dasharray="1,5" d="M296.541,-821.287C287.499,-817.46 278.27,-812.719 270.426,-807 207.552,-761.159 154.175,-685.085 128.524,-644.854"/>
<polygon fill="none" stroke="black" points="131.329,-642.74 123.043,-636.137 125.403,-646.466 131.329,-642.74"/>
</g>
<!-- \\TinCan\\Person -->
<g id="node18" class="node"><title>\\TinCan\\Person</title>
<polygon fill="none" stroke="black" points="365.443,-906 310.228,-906 310.228,-870 365.443,-870 365.443,-906"/>
<text text-anchor="middle" x="337.835" y="-884.7" font-family="Courier,monospace" font-size="11.00">Person</text>
</g>
<!-- \\TinCan\\Person&#45;&gt;\\TinCan\\VersionableInterface -->
<g id="edge25" class="edge"><title>\\TinCan\\Person&#45;&gt;\\TinCan\\VersionableInterface</title>
<path fill="none" stroke="black" stroke-dasharray="1,5" d="M309.949,-881.178C297.002,-876.923 281.849,-870.426 270.426,-861 196.503,-800 145.028,-695.334 123.497,-645.687"/>
<polygon fill="none" stroke="black" points="126.614,-644.071 119.476,-636.241 120.173,-646.813 126.614,-644.071"/>
</g>
<!-- \\TinCan\\RemoteLRS -->
<g id="node19" class="node"><title>\\TinCan\\RemoteLRS</title>
<polygon fill="none" stroke="black" points="602.369,-528 526.547,-528 526.547,-492 602.369,-492 602.369,-528"/>
<text text-anchor="middle" x="564.458" y="-506.7" font-family="Courier,monospace" font-size="11.00">RemoteLRS</text>
</g>
<!-- \\TinCan\\LRSInterface -->
<g id="node32" class="node"><title>\\TinCan\\LRSInterface</title>
<polygon fill="none" stroke="black" points="385.549,-110 290.122,-110 290.122,-74 385.549,-74 385.549,-110"/>
<text text-anchor="middle" x="337.835" y="-88.7" font-family="Courier,monospace" font-size="11.00">LRSInterface</text>
</g>
<!-- \\TinCan\\RemoteLRS&#45;&gt;\\TinCan\\LRSInterface -->
<g id="edge26" class="edge"><title>\\TinCan\\RemoteLRS&#45;&gt;\\TinCan\\LRSInterface</title>
<path fill="none" stroke="black" stroke-dasharray="1,5" d="M526.522,-507.014C509.215,-503.703 489.71,-496.892 477.245,-483 367.112,-360.253 510.213,-246.192 405.245,-119 402.141,-115.238 398.431,-111.996 394.373,-109.201"/>
<polygon fill="none" stroke="black" points="396.034,-106.118 385.639,-104.072 392.489,-112.154 396.034,-106.118"/>
</g>
<!-- \\TinCan\\Result -->
<g id="node20" class="node"><title>\\TinCan\\Result</title>
<polygon fill="none" stroke="black" points="365.443,-690 310.228,-690 310.228,-654 365.443,-654 365.443,-690"/>
<text text-anchor="middle" x="337.835" y="-668.7" font-family="Courier,monospace" font-size="11.00">Result</text>
</g>
<!-- \\TinCan\\Result&#45;&gt;\\TinCan\\ComparableInterface -->
<g id="edge28" class="edge"><title>\\TinCan\\Result&#45;&gt;\\TinCan\\ComparableInterface</title>
<path fill="none" stroke="black" stroke-dasharray="1,5" d="M310.05,-663.948C297.422,-659.46 282.512,-653.122 270.426,-645 213.123,-606.492 159.985,-544.58 132.264,-509.496"/>
<polygon fill="none" stroke="black" points="134.689,-506.915 125.777,-501.185 129.171,-511.222 134.689,-506.915"/>
</g>
<!-- \\TinCan\\Result&#45;&gt;\\TinCan\\VersionableInterface -->
<g id="edge27" class="edge"><title>\\TinCan\\Result&#45;&gt;\\TinCan\\VersionableInterface</title>
<path fill="none" stroke="black" stroke-dasharray="1,5" d="M310.186,-665.593C281.951,-658.806 235.931,-647.742 195.365,-637.99"/>
<polygon fill="none" stroke="black" points="195.995,-634.542 185.454,-635.607 194.359,-641.348 195.995,-634.542"/>
</g>
<!-- \\TinCan\\Score -->
<g id="node21" class="node"><title>\\TinCan\\Score</title>
<polygon fill="none" stroke="black" points="364.835,-636 310.835,-636 310.835,-600 364.835,-600 364.835,-636"/>
<text text-anchor="middle" x="337.835" y="-614.7" font-family="Courier,monospace" font-size="11.00">Score</text>
</g>
<!-- \\TinCan\\Score&#45;&gt;\\TinCan\\ComparableInterface -->
<g id="edge30" class="edge"><title>\\TinCan\\Score&#45;&gt;\\TinCan\\ComparableInterface</title>
<path fill="none" stroke="black" stroke-dasharray="1,5" d="M310.709,-608.854C298.231,-604.117 283.256,-597.886 270.426,-591 224.087,-566.131 174.628,-530.777 143.584,-507.38"/>
<polygon fill="none" stroke="black" points="145.416,-504.376 135.335,-501.117 141.183,-509.951 145.416,-504.376"/>
</g>
<!-- \\TinCan\\Score&#45;&gt;\\TinCan\\VersionableInterface -->
<g id="edge29" class="edge"><title>\\TinCan\\Score&#45;&gt;\\TinCan\\VersionableInterface</title>
<path fill="none" stroke="black" stroke-dasharray="1,5" d="M310.629,-618C282.463,-618 236.242,-618 195.495,-618"/>
<polygon fill="none" stroke="black" points="195.268,-614.5 185.268,-618 195.267,-621.5 195.268,-614.5"/>
</g>
<!-- \\TinCan\\State -->
<g id="node22" class="node"><title>\\TinCan\\State</title>
<polygon fill="none" stroke="black" points="591.458,-636 537.458,-636 537.458,-600 591.458,-600 591.458,-636"/>
<text text-anchor="middle" x="564.458" y="-614.7" font-family="Courier,monospace" font-size="11.00">State</text>
</g>
<!-- \\TinCan\\State&#45;&gt;\\TinCan\\Document -->
<g id="edge31" class="edge"><title>\\TinCan\\State&#45;&gt;\\TinCan\\Document</title>
<path fill="none" stroke="black" d="M537.346,-616.817C517.907,-614.49 492.24,-608.099 477.245,-591 354.393,-450.914 517.588,-326.647 405.245,-178 400.683,-171.963 394.685,-167.008 388.159,-162.957"/>
<polygon fill="none" stroke="black" points="389.473,-159.687 379.017,-157.976 386.124,-165.834 389.473,-159.687"/>
</g>
<!-- \\TinCan\\Statement -->
<g id="node23" class="node"><title>\\TinCan\\Statement</title>
<polygon fill="none" stroke="black" points="602.369,-960 526.547,-960 526.547,-924 602.369,-924 602.369,-960"/>
<text text-anchor="middle" x="564.458" y="-938.7" font-family="Courier,monospace" font-size="11.00">Statement</text>
</g>
<!-- \\TinCan\\StatementBase -->
<g id="node24" class="node"><title>\\TinCan\\StatementBase</title>
<polygon fill="none" stroke="black" points="388.65,-798 287.021,-798 287.021,-762 388.65,-762 388.65,-798"/>
<text text-anchor="start" x="304.83" y="-782.2" font-family="Courier,monospace" font-size="11.00">«abstract»</text>
<text text-anchor="start" x="294.928" y="-771.2" font-family="Courier,monospace" font-size="11.00">StatementBase</text>
</g>
<!-- \\TinCan\\Statement&#45;&gt;\\TinCan\\StatementBase -->
<g id="edge32" class="edge"><title>\\TinCan\\Statement&#45;&gt;\\TinCan\\StatementBase</title>
<path fill="none" stroke="black" d="M526.514,-936.192C510.214,-932.25 491.553,-925.723 477.245,-915 431.082,-880.403 449.94,-843.475 405.245,-807 402.863,-805.056 400.322,-803.236 397.676,-801.534"/>
<polygon fill="none" stroke="black" points="399.34,-798.453 388.928,-796.492 395.844,-804.518 399.34,-798.453"/>
</g>
<!-- \\TinCan\\StatementBase&#45;&gt;\\TinCan\\ComparableInterface -->
<g id="edge34" class="edge"><title>\\TinCan\\StatementBase&#45;&gt;\\TinCan\\ComparableInterface</title>
<path fill="none" stroke="black" stroke-dasharray="1,5" d="M286.725,-764.649C280.787,-761.435 275.164,-757.589 270.426,-753 213.826,-698.187 239.337,-658.337 198.426,-591 180.089,-560.819 154.337,-529.64 135.759,-508.588"/>
<polygon fill="none" stroke="black" points="138.29,-506.169 129.02,-501.039 133.068,-510.83 138.29,-506.169"/>
</g>
<!-- \\TinCan\\StatementBase&#45;&gt;\\TinCan\\VersionableInterface -->
<g id="edge33" class="edge"><title>\\TinCan\\StatementBase&#45;&gt;\\TinCan\\VersionableInterface</title>
<path fill="none" stroke="black" stroke-dasharray="1,5" d="M287.365,-761.968C281.517,-759.233 275.743,-756.233 270.426,-753 218.596,-721.488 166.661,-673.201 137.077,-643.724"/>
<polygon fill="none" stroke="black" points="139.229,-640.924 129.697,-636.298 134.263,-645.858 139.229,-640.924"/>
</g>
<!-- \\TinCan\\StatementRef -->
<g id="node25" class="node"><title>\\TinCan\\StatementRef</title>
<polygon fill="none" stroke="black" points="385.549,-292 290.122,-292 290.122,-256 385.549,-256 385.549,-292"/>
<text text-anchor="middle" x="337.835" y="-270.7" font-family="Courier,monospace" font-size="11.00">StatementRef</text>
</g>
<!-- \\TinCan\\StatementRef&#45;&gt;\\TinCan\\ComparableInterface -->
<g id="edge37" class="edge"><title>\\TinCan\\StatementRef&#45;&gt;\\TinCan\\ComparableInterface</title>
<path fill="none" stroke="black" stroke-dasharray="1,5" d="M289.994,-289.772C283.147,-292.993 276.399,-296.729 270.426,-301 209.099,-344.845 155.77,-417.053 129.528,-456.033"/>
<polygon fill="none" stroke="black" points="126.366,-454.469 123.749,-464.735 132.197,-458.341 126.366,-454.469"/>
</g>
<!-- \\TinCan\\StatementRef&#45;&gt;\\TinCan\\StatementTargetInterface -->
<g id="edge36" class="edge"><title>\\TinCan\\StatementRef&#45;&gt;\\TinCan\\StatementTargetInterface</title>
<path fill="none" stroke="black" stroke-dasharray="1,5" d="M290.021,-268.373C266.328,-265.525 236.657,-261.958 208.381,-258.56"/>
<polygon fill="none" stroke="black" points="208.796,-255.084 198.449,-257.366 207.96,-262.034 208.796,-255.084"/>
</g>
<!-- \\TinCan\\StatementRef&#45;&gt;\\TinCan\\VersionableInterface -->
<g id="edge35" class="edge"><title>\\TinCan\\StatementRef&#45;&gt;\\TinCan\\VersionableInterface</title>
<path fill="none" stroke="black" stroke-dasharray="1,5" d="M290.045,-287.022C282.792,-290.637 275.903,-295.217 270.426,-301 202.87,-372.334 245.762,-423.909 198.426,-510 181.513,-540.759 155.772,-571.635 136.819,-592.448"/>
<polygon fill="none" stroke="black" points="134.138,-590.192 129.919,-599.911 139.278,-594.944 134.138,-590.192"/>
</g>
<!-- \\TinCan\\StatementsResult -->
<g id="node26" class="node"><title>\\TinCan\\StatementsResult</title>
<polygon fill="none" stroke="black" points="625.076,-474 503.84,-474 503.84,-438 625.076,-438 625.076,-474"/>
<text text-anchor="middle" x="564.458" y="-452.7" font-family="Courier,monospace" font-size="11.00">StatementsResult</text>
</g>
<!-- \\TinCan\\SubStatement -->
<g id="node27" class="node"><title>\\TinCan\\SubStatement</title>
<polygon fill="none" stroke="black" points="612.171,-798 516.745,-798 516.745,-762 612.171,-762 612.171,-798"/>
<text text-anchor="middle" x="564.458" y="-776.7" font-family="Courier,monospace" font-size="11.00">SubStatement</text>
</g>
<!-- \\TinCan\\SubStatement&#45;&gt;\\TinCan\\StatementBase -->
<g id="edge38" class="edge"><title>\\TinCan\\SubStatement&#45;&gt;\\TinCan\\StatementBase</title>
<path fill="none" stroke="black" d="M516.643,-780C482.443,-780 435.788,-780 398.85,-780"/>
<polygon fill="none" stroke="black" points="398.708,-776.5 388.708,-780 398.708,-783.5 398.708,-776.5"/>
</g>
<!-- \\TinCan\\SubStatement&#45;&gt;\\TinCan\\StatementTargetInterface -->
<g id="edge39" class="edge"><title>\\TinCan\\SubStatement&#45;&gt;\\TinCan\\StatementTargetInterface</title>
<path fill="none" stroke="black" stroke-dasharray="1,5" d="M516.758,-775.303C502.067,-771.498 487.119,-764.78 477.245,-753 316.051,-560.682 593.659,-358.74 405.245,-193 360.255,-153.424 329.537,-183.19 270.426,-193 233.222,-199.174 193.026,-212.992 162.459,-225.104"/>
<polygon fill="none" stroke="black" points="160.854,-221.978 152.889,-228.965 163.473,-228.47 160.854,-221.978"/>
</g>
<!-- \\TinCan\\Util -->
<g id="node28" class="node"><title>\\TinCan\\Util</title>
<polygon fill="none" stroke="black" points="591.458,-366 537.458,-366 537.458,-330 591.458,-330 591.458,-366"/>
<text text-anchor="middle" x="564.458" y="-344.7" font-family="Courier,monospace" font-size="11.00">Util</text>
</g>
<!-- \\TinCan\\Verb -->
<g id="node29" class="node"><title>\\TinCan\\Verb</title>
<polygon fill="none" stroke="black" points="364.835,-744 310.835,-744 310.835,-708 364.835,-708 364.835,-744"/>
<text text-anchor="middle" x="337.835" y="-722.7" font-family="Courier,monospace" font-size="11.00">Verb</text>
</g>
<!-- \\TinCan\\Verb&#45;&gt;\\TinCan\\ComparableInterface -->
<g id="edge41" class="edge"><title>\\TinCan\\Verb&#45;&gt;\\TinCan\\ComparableInterface</title>
<path fill="none" stroke="black" stroke-dasharray="1,5" d="M310.643,-719.337C297.567,-715.074 282.093,-708.522 270.426,-699 225.731,-662.525 232.452,-637.585 198.426,-591 177.471,-562.311 151.912,-530.675 134.087,-509.101"/>
<polygon fill="none" stroke="black" points="136.737,-506.815 127.659,-501.353 131.35,-511.284 136.737,-506.815"/>
</g>
<!-- \\TinCan\\Verb&#45;&gt;\\TinCan\\VersionableInterface -->
<g id="edge40" class="edge"><title>\\TinCan\\Verb&#45;&gt;\\TinCan\\VersionableInterface</title>
<path fill="none" stroke="black" stroke-dasharray="1,5" d="M310.751,-716.003C298.417,-711.122 283.551,-705.014 270.426,-699 230.467,-680.69 185.994,-657.679 154.401,-640.867"/>
<polygon fill="none" stroke="black" points="155.908,-637.704 145.439,-636.08 152.611,-643.879 155.908,-637.704"/>
</g>
<!-- \\TinCan\\Version -->
<g id="node30" class="node"><title>\\TinCan\\Version</title>
<polygon fill="none" stroke="black" points="595.666,-312 533.25,-312 533.25,-276 595.666,-276 595.666,-312"/>
<text text-anchor="middle" x="564.458" y="-290.7" font-family="Courier,monospace" font-size="11.00">Version</text>
</g>
<!-- \\TinCan\\ArraySetterTrait -->
<g id="node35" class="node"><title>\\TinCan\\ArraySetterTrait</title>
<polygon fill="none" stroke="black" points="625.076,-258 503.84,-258 503.84,-222 625.076,-222 625.076,-258"/>
<text text-anchor="middle" x="564.458" y="-236.7" font-family="Courier,monospace" font-size="11.00">ArraySetterTrait</text>
</g>
<!-- \\TinCan\\AsVersionTrait -->
<g id="node36" class="node"><title>\\TinCan\\AsVersionTrait</title>
<polygon fill="none" stroke="black" points="618.874,-204 510.042,-204 510.042,-168 618.874,-168 618.874,-204"/>
<text text-anchor="middle" x="564.458" y="-182.7" font-family="Courier,monospace" font-size="11.00">AsVersionTrait</text>
</g>
<!-- \\TinCan\\FromJSONTrait -->
<g id="node37" class="node"><title>\\TinCan\\FromJSONTrait</title>
<polygon fill="none" stroke="black" points="615.272,-150 513.644,-150 513.644,-114 615.272,-114 615.272,-150"/>
<text text-anchor="middle" x="564.458" y="-128.7" font-family="Courier,monospace" font-size="11.00">FromJSONTrait</text>
</g>
<!-- \\TinCan\\SignatureComparisonTrait -->
<g id="node38" class="node"><title>\\TinCan\\SignatureComparisonTrait</title>
<polygon fill="none" stroke="black" points="651.884,-96 477.032,-96 477.032,-60 651.884,-60 651.884,-96"/>
<text text-anchor="middle" x="564.458" y="-74.7" font-family="Courier,monospace" font-size="11.00">SignatureComparisonTrait</text>
</g>
</g>
</svg>
