<?xml version="1.0" encoding="UTF-8" standalone="no"?>
<!DOCTYPE svg PUBLIC "-//W3C//DTD SVG 1.1//EN"
 "http://www.w3.org/Graphics/SVG/1.1/DTD/svg11.dtd">
<!-- Generated by graphviz version 2.38.0 (20140413.2041)
 -->
<!-- Title: G Pages: 1 -->
<svg width="684pt" height="1034pt"
 viewBox="0.00 0.00 683.67 1034.00" xmlns="http://www.w3.org/2000/svg" xmlns:xlink="http://www.w3.org/1999/xlink">
<g id="graph0" class="graph" transform="scale(1 1) rotate(0) translate(4 1030)">
<title>G</title>
<polygon fill="white" stroke="none" points="-4,4 -4,-1030 679.671,-1030 679.671,4 -4,4"/>
<g id="clust1" class="cluster"><title>cluster_Global</title>
<path fill="none" stroke="gray" d="M20,-8C20,-8 655.671,-8 655.671,-8 661.671,-8 667.671,-14 667.671,-20 667.671,-20 667.671,-1006 667.671,-1006 667.671,-1012 661.671,-1018 655.671,-1018 655.671,-1018 20,-1018 20,-1018 14,-1018 8,-1012 8,-1006 8,-1006 8,-20 8,-20 8,-14 14,-8 20,-8"/>
<text text-anchor="middle" x="337.835" y="-1005.2" font-family="Times,serif" font-size="11.00" fill="gray">Global</text>
</g>
<g id="clust2" class="cluster"><title>cluster_\TinCan</title>
<path fill="none" stroke="gray" d="M28,-16C28,-16 647.671,-16 647.671,-16 653.671,-16 659.671,-22 659.671,-28 659.671,-28 659.671,-979 659.671,-979 659.671,-985 653.671,-991 647.671,-991 647.671,-991 28,-991 28,-991 22,-991 16,-985 16,-979 16,-979 16,-28 16,-28 16,-22 22,-16 28,-16"/>
<text text-anchor="middle" x="337.835" y="-978.2" font-family="Times,serif" font-size="11.00" fill="gray">TinCan</text>
</g>
<!-- \\TinCan\\About -->
<g id="node1" class="node"><title>\\TinCan\\About</title>
<polygon fill="none" stroke="black" points="364.835,-802 310.835,-802 310.835,-766 364.835,-766 364.835,-802"/>
<text text-anchor="middle" x="337.835" y="-780.7" font-family="Courier,monospace" font-size="11.00">About</text>
</g>
<!-- \\TinCan\\VersionableInterface -->
<g id="node33" class="node"><title>\\TinCan\\VersionableInterface</title>
<polygon fill="none" stroke="black" points="185.234,-586 37.1914,-586 37.1914,-550 185.234,-550 185.234,-586"/>
<text text-anchor="middle" x="111.213" y="-564.7" font-family="Courier,monospace" font-size="11.00">VersionableInterface</text>
</g>
<!-- \\TinCan\\About&#45;&gt;\\TinCan\\VersionableInterface -->
<g id="edge1" class="edge"><title>\\TinCan\\About&#45;&gt;\\TinCan\\VersionableInterface</title>
<path fill="none" stroke="black" stroke-dasharray="1,5" d="M310.739,-776.686C297.84,-772.281 282.494,-765.799 270.426,-757 207.552,-711.159 154.175,-635.085 128.524,-594.854"/>
<polygon fill="none" stroke="black" points="131.329,-592.74 123.043,-586.137 125.403,-596.466 131.329,-592.74"/>
</g>
<!-- \\TinCan\\Activity -->
<g id="node2" class="node"><title>\\TinCan\\Activity</title>
<polygon fill="none" stroke="black" points="372.144,-242 303.527,-242 303.527,-206 372.144,-206 372.144,-242"/>
<text text-anchor="middle" x="337.835" y="-220.7" font-family="Courier,monospace" font-size="11.00">Activity</text>
</g>
<!-- \\TinCan\\ComparableInterface -->
<g id="node30" class="node"><title>\\TinCan\\ComparableInterface</title>
<polygon fill="none" stroke="black" points="182.134,-451 40.2919,-451 40.2919,-415 182.134,-415 182.134,-451"/>
<text text-anchor="middle" x="111.213" y="-429.7" font-family="Courier,monospace" font-size="11.00">ComparableInterface</text>
</g>
<!-- \\TinCan\\Activity&#45;&gt;\\TinCan\\ComparableInterface -->
<g id="edge4" class="edge"><title>\\TinCan\\Activity&#45;&gt;\\TinCan\\ComparableInterface</title>
<path fill="none" stroke="black" stroke-dasharray="1,5" d="M303.509,-234.053C292.405,-238.287 280.348,-243.906 270.426,-251 209.099,-294.845 155.77,-367.053 129.528,-406.033"/>
<polygon fill="none" stroke="black" points="126.366,-404.469 123.749,-414.735 132.197,-408.341 126.366,-404.469"/>
</g>
<!-- \\TinCan\\StatementTargetInterface -->
<g id="node32" class="node"><title>\\TinCan\\StatementTargetInterface</title>
<polygon fill="none" stroke="black" points="198.639,-215 23.7866,-215 23.7866,-179 198.639,-179 198.639,-215"/>
<text text-anchor="middle" x="111.213" y="-193.7" font-family="Courier,monospace" font-size="11.00">StatementTargetInterface</text>
</g>
<!-- \\TinCan\\Activity&#45;&gt;\\TinCan\\StatementTargetInterface -->
<g id="edge3" class="edge"><title>\\TinCan\\Activity&#45;&gt;\\TinCan\\StatementTargetInterface</title>
<path fill="none" stroke="black" stroke-dasharray="1,5" d="M303.207,-219.958C278.033,-216.932 242.259,-212.632 208.466,-208.57"/>
<polygon fill="none" stroke="black" points="208.875,-205.094 198.528,-207.375 208.039,-212.044 208.875,-205.094"/>
</g>
<!-- \\TinCan\\Activity&#45;&gt;\\TinCan\\VersionableInterface -->
<g id="edge2" class="edge"><title>\\TinCan\\Activity&#45;&gt;\\TinCan\\VersionableInterface</title>
<path fill="none" stroke="black" stroke-dasharray="1,5" d="M303.472,-231.431C291.713,-235.504 279.241,-241.692 270.426,-251 202.87,-322.334 245.762,-373.909 198.426,-460 181.513,-490.759 155.772,-521.635 136.819,-542.448"/>
<polygon fill="none" stroke="black" points="134.138,-540.192 129.919,-549.911 139.278,-544.944 134.138,-540.192"/>
</g>
<!-- \\TinCan\\ActivityDefinition -->
<g id="node3" class="node"><title>\\TinCan\\ActivityDefinition</title>
<polygon fill="none" stroke="black" points="405.155,-964 270.516,-964 270.516,-928 405.155,-928 405.155,-964"/>
<text text-anchor="middle" x="337.835" y="-942.7" font-family="Courier,monospace" font-size="11.00">ActivityDefinition</text>
</g>
<!-- \\TinCan\\ActivityDefinition&#45;&gt;\\TinCan\\VersionableInterface -->
<g id="edge5" class="edge"><title>\\TinCan\\ActivityDefinition&#45;&gt;\\TinCan\\VersionableInterface</title>
<path fill="none" stroke="black" stroke-dasharray="1,5" d="M282.115,-927.948C277.893,-925.336 273.921,-922.368 270.426,-919 173.299,-825.432 130.994,-661.319 117.429,-595.985"/>
<polygon fill="none" stroke="black" points="120.828,-595.136 115.426,-586.022 113.965,-596.515 120.828,-595.136"/>
</g>
<!-- \\TinCan\\ActivityProfile -->
<g id="node4" class="node"><title>\\TinCan\\ActivityProfile</title>
<polygon fill="none" stroke="black" points="621.974,-600 506.942,-600 506.942,-564 621.974,-564 621.974,-600"/>
<text text-anchor="middle" x="564.458" y="-578.7" font-family="Courier,monospace" font-size="11.00">ActivityProfile</text>
</g>
<!-- \\TinCan\\Document -->
<g id="node11" class="node"><title>\\TinCan\\Document</title>
<polygon fill="none" stroke="black" points="378.846,-114 296.825,-114 296.825,-78 378.846,-78 378.846,-114"/>
<text text-anchor="start" x="304.83" y="-98.2" font-family="Courier,monospace" font-size="11.00">«abstract»</text>
<text text-anchor="start" x="311.431" y="-87.2" font-family="Courier,monospace" font-size="11.00">Document</text>
</g>
<!-- \\TinCan\\ActivityProfile&#45;&gt;\\TinCan\\Document -->
<g id="edge6" class="edge"><title>\\TinCan\\ActivityProfile&#45;&gt;\\TinCan\\Document</title>
<path fill="none" stroke="black" d="M506.703,-573.89C495.578,-569.854 484.977,-563.866 477.245,-555 350.752,-409.951 520.859,-281.861 405.245,-128 400.699,-121.951 394.711,-116.989 388.189,-112.934"/>
<polygon fill="none" stroke="black" points="389.505,-109.665 379.05,-107.952 386.154,-115.811 389.505,-109.665"/>
</g>
<!-- \\TinCan\\Agent -->
<g id="node5" class="node"><title>\\TinCan\\Agent</title>
<polygon fill="none" stroke="black" points="364.835,-188 310.835,-188 310.835,-152 364.835,-152 364.835,-188"/>
<text text-anchor="middle" x="337.835" y="-166.7" font-family="Courier,monospace" font-size="11.00">Agent</text>
</g>
<!-- \\TinCan\\Agent&#45;&gt;\\TinCan\\ComparableInterface -->
<g id="edge9" class="edge"><title>\\TinCan\\Agent&#45;&gt;\\TinCan\\ComparableInterface</title>
<path fill="none" stroke="black" stroke-dasharray="1,5" d="M310.654,-176.675C297.58,-180.942 282.105,-187.493 270.426,-197 197.77,-256.137 145.842,-357.415 123.874,-405.763"/>
<polygon fill="none" stroke="black" points="120.644,-404.412 119.763,-414.97 127.036,-407.266 120.644,-404.412"/>
</g>
<!-- \\TinCan\\Agent&#45;&gt;\\TinCan\\StatementTargetInterface -->
<g id="edge8" class="edge"><title>\\TinCan\\Agent&#45;&gt;\\TinCan\\StatementTargetInterface</title>
<path fill="none" stroke="black" stroke-dasharray="1,5" d="M310.629,-173.15C285.505,-176.17 246.016,-180.917 208.859,-185.383"/>
<polygon fill="none" stroke="black" points="207.966,-181.965 198.455,-186.634 208.801,-188.915 207.966,-181.965"/>
</g>
<!-- \\TinCan\\Agent&#45;&gt;\\TinCan\\VersionableInterface -->
<g id="edge7" class="edge"><title>\\TinCan\\Agent&#45;&gt;\\TinCan\\VersionableInterface</title>
<path fill="none" stroke="black" stroke-dasharray="1,5" d="M310.576,-174.834C296.829,-178.655 280.753,-185.365 270.426,-197 189.976,-287.636 253.36,-351.976 198.426,-460 182.611,-491.099 156.944,-521.716 137.721,-542.364"/>
<polygon fill="none" stroke="black" points="135.041,-540.103 130.703,-549.769 140.122,-544.918 135.041,-540.103"/>
</g>
<!-- \\TinCan\\AgentAccount -->
<g id="node6" class="node"><title>\\TinCan\\AgentAccount</title>
<polygon fill="none" stroke="black" points="385.549,-478 290.122,-478 290.122,-442 385.549,-442 385.549,-478"/>
<text text-anchor="middle" x="337.835" y="-456.7" font-family="Courier,monospace" font-size="11.00">AgentAccount</text>
</g>
<!-- \\TinCan\\AgentAccount&#45;&gt;\\TinCan\\ComparableInterface -->
<g id="edge11" class="edge"><title>\\TinCan\\AgentAccount&#45;&gt;\\TinCan\\ComparableInterface</title>
<path fill="none" stroke="black" stroke-dasharray="1,5" d="M290.021,-454.373C261.706,-450.969 224.854,-446.54 192.047,-442.596"/>
<polygon fill="none" stroke="black" points="192.356,-439.108 182.01,-441.39 191.521,-446.058 192.356,-439.108"/>
</g>
<!-- \\TinCan\\AgentAccount&#45;&gt;\\TinCan\\VersionableInterface -->
<g id="edge10" class="edge"><title>\\TinCan\\AgentAccount&#45;&gt;\\TinCan\\VersionableInterface</title>
<path fill="none" stroke="black" stroke-dasharray="1,5" d="M290.885,-478.074C283.986,-480.963 276.988,-483.993 270.426,-487 230.467,-505.31 185.994,-528.321 154.401,-545.133"/>
<polygon fill="none" stroke="black" points="152.611,-542.121 145.439,-549.92 155.908,-548.296 152.611,-542.121"/>
</g>
<!-- \\TinCan\\AgentProfile -->
<g id="node7" class="node"><title>\\TinCan\\AgentProfile</title>
<polygon fill="none" stroke="black" points="612.171,-546 516.745,-546 516.745,-510 612.171,-510 612.171,-546"/>
<text text-anchor="middle" x="564.458" y="-524.7" font-family="Courier,monospace" font-size="11.00">AgentProfile</text>
</g>
<!-- \\TinCan\\AgentProfile&#45;&gt;\\TinCan\\Document -->
<g id="edge12" class="edge"><title>\\TinCan\\AgentProfile&#45;&gt;\\TinCan\\Document</title>
<path fill="none" stroke="black" d="M516.726,-522.823C502.211,-518.972 487.379,-512.347 477.245,-501 364.779,-375.072 508.258,-261.77 405.245,-128 400.628,-122.005 394.602,-117.072 388.063,-113.03"/>
<polygon fill="none" stroke="black" points="389.37,-109.757 378.913,-108.056 386.027,-115.907 389.37,-109.757"/>
</g>
<!-- \\TinCan\\Attachment -->
<g id="node8" class="node"><title>\\TinCan\\Attachment</title>
<polygon fill="none" stroke="black" points="378.846,-424 296.825,-424 296.825,-388 378.846,-388 378.846,-424"/>
<text text-anchor="middle" x="337.835" y="-402.7" font-family="Courier,monospace" font-size="11.00">Attachment</text>
</g>
<!-- \\TinCan\\Attachment&#45;&gt;\\TinCan\\ComparableInterface -->
<g id="edge14" class="edge"><title>\\TinCan\\Attachment&#45;&gt;\\TinCan\\ComparableInterface</title>
<path fill="none" stroke="black" stroke-dasharray="1,5" d="M296.677,-410.827C267.735,-414.306 227.705,-419.118 192.33,-423.37"/>
<polygon fill="none" stroke="black" points="191.516,-419.942 182.006,-424.611 192.352,-426.892 191.516,-419.942"/>
</g>
<!-- \\TinCan\\Attachment&#45;&gt;\\TinCan\\VersionableInterface -->
<g id="edge13" class="edge"><title>\\TinCan\\Attachment&#45;&gt;\\TinCan\\VersionableInterface</title>
<path fill="none" stroke="black" stroke-dasharray="1,5" d="M296.497,-419.986C287.645,-423.71 278.508,-428.086 270.426,-433 218.596,-464.512 166.661,-512.799 137.077,-542.276"/>
<polygon fill="none" stroke="black" points="134.263,-540.142 129.697,-549.702 139.229,-545.076 134.263,-540.142"/>
</g>
<!-- \\TinCan\\Context -->
<g id="node9" class="node"><title>\\TinCan\\Context</title>
<polygon fill="none" stroke="black" points="369.043,-694 306.628,-694 306.628,-658 369.043,-658 369.043,-694"/>
<text text-anchor="middle" x="337.835" y="-672.7" font-family="Courier,monospace" font-size="11.00">Context</text>
</g>
<!-- \\TinCan\\Context&#45;&gt;\\TinCan\\ComparableInterface -->
<g id="edge16" class="edge"><title>\\TinCan\\Context&#45;&gt;\\TinCan\\ComparableInterface</title>
<path fill="none" stroke="black" stroke-dasharray="1,5" d="M306.688,-668.001C294.536,-663.745 280.936,-657.577 270.426,-649 225.731,-612.525 232.452,-587.585 198.426,-541 177.471,-512.311 151.912,-480.675 134.087,-459.101"/>
<polygon fill="none" stroke="black" points="136.737,-456.815 127.659,-451.353 131.35,-461.284 136.737,-456.815"/>
</g>
<!-- \\TinCan\\Context&#45;&gt;\\TinCan\\VersionableInterface -->
<g id="edge15" class="edge"><title>\\TinCan\\Context&#45;&gt;\\TinCan\\VersionableInterface</title>
<path fill="none" stroke="black" stroke-dasharray="1,5" d="M306.515,-664.318C295.106,-659.754 282.08,-654.34 270.426,-649 230.467,-630.69 185.994,-607.679 154.401,-590.867"/>
<polygon fill="none" stroke="black" points="155.908,-587.704 145.439,-586.08 152.611,-593.879 155.908,-587.704"/>
</g>
<!-- \\TinCan\\ContextActivities -->
<g id="node10" class="node"><title>\\TinCan\\ContextActivities</title>
<polygon fill="none" stroke="black" points="402.054,-532 273.617,-532 273.617,-496 402.054,-496 402.054,-532"/>
<text text-anchor="middle" x="337.835" y="-510.7" font-family="Courier,monospace" font-size="11.00">ContextActivities</text>
</g>
<!-- \\TinCan\\ContextActivities&#45;&gt;\\TinCan\\ComparableInterface -->
<g id="edge18" class="edge"><title>\\TinCan\\ContextActivities&#45;&gt;\\TinCan\\ComparableInterface</title>
<path fill="none" stroke="black" stroke-dasharray="1,5" d="M286.705,-495.923C252.785,-483.691 207.816,-467.475 172.025,-454.568"/>
<polygon fill="none" stroke="black" points="172.784,-451.122 162.19,-451.022 170.41,-457.707 172.784,-451.122"/>
</g>
<!-- \\TinCan\\ContextActivities&#45;&gt;\\TinCan\\VersionableInterface -->
<g id="edge17" class="edge"><title>\\TinCan\\ContextActivities&#45;&gt;\\TinCan\\VersionableInterface</title>
<path fill="none" stroke="black" stroke-dasharray="1,5" d="M273.668,-529.186C249.39,-535.022 221.295,-541.776 195.416,-547.998"/>
<polygon fill="none" stroke="black" points="194.523,-544.613 185.618,-550.353 196.159,-551.419 194.523,-544.613"/>
</g>
<!-- \\TinCan\\Extensions -->
<g id="node12" class="node"><title>\\TinCan\\Extensions</title>
<polygon fill="none" stroke="black" points="605.469,-870 523.447,-870 523.447,-834 605.469,-834 605.469,-870"/>
<text text-anchor="middle" x="564.458" y="-848.7" font-family="Courier,monospace" font-size="11.00">Extensions</text>
</g>
<!-- \\TinCan\\Map -->
<g id="node16" class="node"><title>\\TinCan\\Map</title>
<polygon fill="none" stroke="black" points="378.846,-856 296.825,-856 296.825,-820 378.846,-820 378.846,-856"/>
<text text-anchor="start" x="304.83" y="-840.2" font-family="Courier,monospace" font-size="11.00">«abstract»</text>
<text text-anchor="start" x="327.934" y="-829.2" font-family="Courier,monospace" font-size="11.00">Map</text>
</g>
<!-- \\TinCan\\Extensions&#45;&gt;\\TinCan\\Map -->
<g id="edge19" class="edge"><title>\\TinCan\\Extensions&#45;&gt;\\TinCan\\Map</title>
<path fill="none" stroke="black" d="M523.3,-849.497C485.804,-847.16 429.702,-843.663 389.218,-841.14"/>
<polygon fill="none" stroke="black" points="389.222,-837.634 379.024,-840.505 388.787,-844.62 389.222,-837.634"/>
</g>
<!-- \\TinCan\\Extensions&#45;&gt;\\TinCan\\ComparableInterface -->
<g id="edge20" class="edge"><title>\\TinCan\\Extensions&#45;&gt;\\TinCan\\ComparableInterface</title>
<path fill="none" stroke="black" stroke-dasharray="1,5" d="M523.227,-848.587C506.684,-845.108 488.744,-838.28 477.245,-825 345.806,-673.211 558.12,-509.175 405.245,-379 359.624,-340.153 329.537,-369.19 270.426,-379 233.222,-385.174 193.026,-398.992 162.459,-411.104"/>
<polygon fill="none" stroke="black" points="160.854,-407.978 152.889,-414.965 163.473,-414.47 160.854,-407.978"/>
</g>
<!-- \\TinCan\\Group -->
<g id="node13" class="node"><title>\\TinCan\\Group</title>
<polygon fill="none" stroke="black" points="591.458,-762 537.458,-762 537.458,-726 591.458,-726 591.458,-762"/>
<text text-anchor="middle" x="564.458" y="-740.7" font-family="Courier,monospace" font-size="11.00">Group</text>
</g>
<!-- \\TinCan\\Group&#45;&gt;\\TinCan\\Agent -->
<g id="edge21" class="edge"><title>\\TinCan\\Group&#45;&gt;\\TinCan\\Agent</title>
<path fill="none" stroke="black" d="M537.176,-742.964C517.646,-740.715 491.939,-734.358 477.245,-717 326.504,-538.917 548.5,-381.158 405.245,-197 397.739,-187.351 386.216,-181.131 374.864,-177.13"/>
<polygon fill="none" stroke="black" points="375.622,-173.703 365.036,-174.154 373.593,-180.402 375.622,-173.703"/>
</g>
<!-- \\TinCan\\LanguageMap -->
<g id="node14" class="node"><title>\\TinCan\\LanguageMap</title>
<polygon fill="none" stroke="black" points="608.571,-924 520.345,-924 520.345,-888 608.571,-888 608.571,-924"/>
<text text-anchor="middle" x="564.458" y="-902.7" font-family="Courier,monospace" font-size="11.00">LanguageMap</text>
</g>
<!-- \\TinCan\\LanguageMap&#45;&gt;\\TinCan\\Map -->
<g id="edge22" class="edge"><title>\\TinCan\\LanguageMap&#45;&gt;\\TinCan\\Map</title>
<path fill="none" stroke="black" d="M520.149,-892.889C482.54,-881.504 428.078,-865.017 388.669,-853.086"/>
<polygon fill="none" stroke="black" points="389.579,-849.705 378.993,-850.157 387.55,-856.404 389.579,-849.705"/>
</g>
<!-- \\TinCan\\LRSResponse -->
<g id="node15" class="node"><title>\\TinCan\\LRSResponse</title>
<polygon fill="none" stroke="black" points="608.571,-654 520.345,-654 520.345,-618 608.571,-618 608.571,-654"/>
<text text-anchor="middle" x="564.458" y="-632.7" font-family="Courier,monospace" font-size="11.00">LRSResponse</text>
</g>
<!-- \\TinCan\\Map&#45;&gt;\\TinCan\\VersionableInterface -->
<g id="edge23" class="edge"><title>\\TinCan\\Map&#45;&gt;\\TinCan\\VersionableInterface</title>
<path fill="none" stroke="black" stroke-dasharray="1,5" d="M296.718,-826.248C287.471,-822.35 278.105,-817.337 270.426,-811 196.503,-750 145.028,-645.334 123.497,-595.687"/>
<polygon fill="none" stroke="black" points="126.614,-594.071 119.476,-586.241 120.173,-596.813 126.614,-594.071"/>
</g>
<!-- \\TinCan\\Person -->
<g id="node17" class="node"><title>\\TinCan\\Person</title>
<polygon fill="none" stroke="black" points="365.443,-910 310.228,-910 310.228,-874 365.443,-874 365.443,-910"/>
<text text-anchor="middle" x="337.835" y="-888.7" font-family="Courier,monospace" font-size="11.00">Person</text>
</g>
<!-- \\TinCan\\Person&#45;&gt;\\TinCan\\VersionableInterface -->
<g id="edge24" class="edge"><title>\\TinCan\\Person&#45;&gt;\\TinCan\\VersionableInterface</title>
<path fill="none" stroke="black" stroke-dasharray="1,5" d="M309.913,-885.704C296.803,-881.559 281.518,-875.001 270.426,-865 185.057,-788.025 137.456,-653.933 119.995,-595.991"/>
<polygon fill="none" stroke="black" points="123.262,-594.695 117.083,-586.089 116.547,-596.67 123.262,-594.695"/>
</g>
<!-- \\TinCan\\RemoteLRS -->
<g id="node18" class="node"><title>\\TinCan\\RemoteLRS</title>
<polygon fill="none" stroke="black" points="602.369,-384 526.547,-384 526.547,-348 602.369,-348 602.369,-384"/>
<text text-anchor="middle" x="564.458" y="-362.7" font-family="Courier,monospace" font-size="11.00">RemoteLRS</text>
</g>
<!-- \\TinCan\\LRSInterface -->
<g id="node31" class="node"><title>\\TinCan\\LRSInterface</title>
<polygon fill="none" stroke="black" points="385.549,-60 290.122,-60 290.122,-24 385.549,-24 385.549,-60"/>
<text text-anchor="middle" x="337.835" y="-38.7" font-family="Courier,monospace" font-size="11.00">LRSInterface</text>
</g>
<!-- \\TinCan\\RemoteLRS&#45;&gt;\\TinCan\\LRSInterface -->
<g id="edge25" class="edge"><title>\\TinCan\\RemoteLRS&#45;&gt;\\TinCan\\LRSInterface</title>
<path fill="none" stroke="black" stroke-dasharray="1,5" d="M526.472,-362.572C509.366,-359.145 490.048,-352.364 477.245,-339 391.331,-249.319 487.381,-162.154 405.245,-69 402.068,-65.3971 398.34,-62.2669 394.299,-59.5488"/>
<polygon fill="none" stroke="black" points="396.047,-56.5167 385.641,-54.5286 392.536,-62.5724 396.047,-56.5167"/>
</g>
<!-- \\TinCan\\Result -->
<g id="node19" class="node"><title>\\TinCan\\Result</title>
<polygon fill="none" stroke="black" points="365.443,-586 310.228,-586 310.228,-550 365.443,-550 365.443,-586"/>
<text text-anchor="middle" x="337.835" y="-564.7" font-family="Courier,monospace" font-size="11.00">Result</text>
</g>
<!-- \\TinCan\\Result&#45;&gt;\\TinCan\\ComparableInterface -->
<g id="edge27" class="edge"><title>\\TinCan\\Result&#45;&gt;\\TinCan\\ComparableInterface</title>
<path fill="none" stroke="black" stroke-dasharray="1,5" d="M310.067,-558.61C297.719,-553.904 283.037,-547.768 270.426,-541 224.087,-516.131 174.628,-480.777 143.584,-457.38"/>
<polygon fill="none" stroke="black" points="145.416,-454.376 135.335,-451.117 141.183,-459.951 145.416,-454.376"/>
</g>
<!-- \\TinCan\\Result&#45;&gt;\\TinCan\\VersionableInterface -->
<g id="edge26" class="edge"><title>\\TinCan\\Result&#45;&gt;\\TinCan\\VersionableInterface</title>
<path fill="none" stroke="black" stroke-dasharray="1,5" d="M310.186,-568C282.01,-568 236.126,-568 195.622,-568"/>
<polygon fill="none" stroke="black" points="195.454,-564.5 185.454,-568 195.454,-571.5 195.454,-564.5"/>
</g>
<!-- \\TinCan\\Score -->
<g id="node20" class="node"><title>\\TinCan\\Score</title>
<polygon fill="none" stroke="black" points="364.835,-748 310.835,-748 310.835,-712 364.835,-712 364.835,-748"/>
<text text-anchor="middle" x="337.835" y="-726.7" font-family="Courier,monospace" font-size="11.00">Score</text>
</g>
<!-- \\TinCan\\Score&#45;&gt;\\TinCan\\ComparableInterface -->
<g id="edge29" class="edge"><title>\\TinCan\\Score&#45;&gt;\\TinCan\\ComparableInterface</title>
<path fill="none" stroke="black" stroke-dasharray="1,5" d="M310.591,-724.333C297.183,-720.299 281.423,-713.65 270.426,-703 213.826,-648.187 239.337,-608.337 198.426,-541 180.089,-510.819 154.337,-479.64 135.759,-458.588"/>
<polygon fill="none" stroke="black" points="138.29,-456.169 129.02,-451.039 133.068,-460.83 138.29,-456.169"/>
</g>
<!-- \\TinCan\\Score&#45;&gt;\\TinCan\\VersionableInterface -->
<g id="edge28" class="edge"><title>\\TinCan\\Score&#45;&gt;\\TinCan\\VersionableInterface</title>
<path fill="none" stroke="black" stroke-dasharray="1,5" d="M310.687,-721.572C298.065,-716.962 282.975,-710.63 270.426,-703 218.596,-671.488 166.661,-623.201 137.077,-593.724"/>
<polygon fill="none" stroke="black" points="139.229,-590.924 129.697,-586.298 134.263,-595.858 139.229,-590.924"/>
</g>
<!-- \\TinCan\\State -->
<g id="node21" class="node"><title>\\TinCan\\State</title>
<polygon fill="none" stroke="black" points="591.458,-492 537.458,-492 537.458,-456 591.458,-456 591.458,-492"/>
<text text-anchor="middle" x="564.458" y="-470.7" font-family="Courier,monospace" font-size="11.00">State</text>
</g>
<!-- \\TinCan\\State&#45;&gt;\\TinCan\\Document -->
<g id="edge30" class="edge"><title>\\TinCan\\State&#45;&gt;\\TinCan\\Document</title>
<path fill="none" stroke="black" d="M537.181,-472.555C517.916,-470.075 492.551,-463.608 477.245,-447 378.744,-340.124 495.715,-241.754 405.245,-128 400.59,-122.147 394.599,-117.298 388.126,-113.301"/>
<polygon fill="none" stroke="black" points="389.534,-110.082 379.079,-108.363 386.18,-116.226 389.534,-110.082"/>
</g>
<!-- \\TinCan\\Statement -->
<g id="node22" class="node"><title>\\TinCan\\Statement</title>
<polygon fill="none" stroke="black" points="602.369,-816 526.547,-816 526.547,-780 602.369,-780 602.369,-816"/>
<text text-anchor="middle" x="564.458" y="-794.7" font-family="Courier,monospace" font-size="11.00">Statement</text>
</g>
<!-- \\TinCan\\StatementBase -->
<g id="node23" class="node"><title>\\TinCan\\StatementBase</title>
<polygon fill="none" stroke="black" points="388.65,-350 287.021,-350 287.021,-314 388.65,-314 388.65,-350"/>
<text text-anchor="start" x="304.83" y="-334.2" font-family="Courier,monospace" font-size="11.00">«abstract»</text>
<text text-anchor="start" x="294.928" y="-323.2" font-family="Courier,monospace" font-size="11.00">StatementBase</text>
</g>
<!-- \\TinCan\\Statement&#45;&gt;\\TinCan\\StatementBase -->
<g id="edge31" class="edge"><title>\\TinCan\\Statement&#45;&gt;\\TinCan\\StatementBase</title>
<path fill="none" stroke="black" d="M526.401,-795.122C509.064,-791.837 489.569,-785.017 477.245,-771 355.953,-633.04 516.187,-510.413 405.245,-364 402.836,-360.82 400.029,-357.94 396.956,-355.335"/>
<polygon fill="none" stroke="black" points="398.986,-352.483 388.848,-349.407 394.855,-358.134 398.986,-352.483"/>
</g>
<!-- \\TinCan\\StatementBase&#45;&gt;\\TinCan\\ComparableInterface -->
<g id="edge33" class="edge"><title>\\TinCan\\StatementBase&#45;&gt;\\TinCan\\ComparableInterface</title>
<path fill="none" stroke="black" stroke-dasharray="1,5" d="M296.677,-350.057C258.863,-367.06 202.126,-392.571 161.568,-410.808"/>
<polygon fill="none" stroke="black" points="160.086,-407.636 152.401,-414.93 162.957,-414.021 160.086,-407.636"/>
</g>
<!-- \\TinCan\\StatementBase&#45;&gt;\\TinCan\\VersionableInterface -->
<g id="edge32" class="edge"><title>\\TinCan\\StatementBase&#45;&gt;\\TinCan\\VersionableInterface</title>
<path fill="none" stroke="black" stroke-dasharray="1,5" d="M307.819,-350.147C295.716,-358.309 281.848,-368.468 270.426,-379 240.587,-406.512 168.1,-497.025 132.551,-542.067"/>
<polygon fill="none" stroke="black" points="129.801,-539.902 126.362,-549.923 135.3,-544.234 129.801,-539.902"/>
</g>
<!-- \\TinCan\\StatementRef -->
<g id="node24" class="node"><title>\\TinCan\\StatementRef</title>
<polygon fill="none" stroke="black" points="385.549,-296 290.122,-296 290.122,-260 385.549,-260 385.549,-296"/>
<text text-anchor="middle" x="337.835" y="-274.7" font-family="Courier,monospace" font-size="11.00">StatementRef</text>
</g>
<!-- \\TinCan\\StatementRef&#45;&gt;\\TinCan\\ComparableInterface -->
<g id="edge36" class="edge"><title>\\TinCan\\StatementRef&#45;&gt;\\TinCan\\ComparableInterface</title>
<path fill="none" stroke="black" stroke-dasharray="1,5" d="M289.912,-295.044C283.216,-298.055 276.535,-301.394 270.426,-305 219.871,-334.838 168.293,-379.864 138.317,-407.793"/>
<polygon fill="none" stroke="black" points="135.701,-405.448 130.814,-414.848 140.497,-410.547 135.701,-405.448"/>
</g>
<!-- \\TinCan\\StatementRef&#45;&gt;\\TinCan\\StatementTargetInterface -->
<g id="edge35" class="edge"><title>\\TinCan\\StatementRef&#45;&gt;\\TinCan\\StatementTargetInterface</title>
<path fill="none" stroke="black" stroke-dasharray="1,5" d="M290.021,-261.118C255.793,-248.776 209.089,-231.934 172.136,-218.609"/>
<polygon fill="none" stroke="black" points="173.074,-215.226 162.479,-215.126 170.699,-221.811 173.074,-215.226"/>
</g>
<!-- \\TinCan\\StatementRef&#45;&gt;\\TinCan\\VersionableInterface -->
<g id="edge34" class="edge"><title>\\TinCan\\StatementRef&#45;&gt;\\TinCan\\VersionableInterface</title>
<path fill="none" stroke="black" stroke-dasharray="1,5" d="M290.193,-291.678C283.009,-295.211 276.104,-299.592 270.426,-305 215.423,-357.387 238.405,-395.414 198.426,-460 179.839,-490.027 154.124,-521.229 135.623,-542.328"/>
<polygon fill="none" stroke="black" points="132.929,-540.091 128.915,-549.897 138.167,-544.734 132.929,-540.091"/>
</g>
<!-- \\TinCan\\StatementsResult -->
<g id="node25" class="node"><title>\\TinCan\\StatementsResult</title>
<polygon fill="none" stroke="black" points="625.076,-438 503.84,-438 503.84,-402 625.076,-402 625.076,-438"/>
<text text-anchor="middle" x="564.458" y="-416.7" font-family="Courier,monospace" font-size="11.00">StatementsResult</text>
</g>
<!-- \\TinCan\\SubStatement -->
<g id="node26" class="node"><title>\\TinCan\\SubStatement</title>
<polygon fill="none" stroke="black" points="612.171,-708 516.745,-708 516.745,-672 612.171,-672 612.171,-708"/>
<text text-anchor="middle" x="564.458" y="-686.7" font-family="Courier,monospace" font-size="11.00">SubStatement</text>
</g>
<!-- \\TinCan\\SubStatement&#45;&gt;\\TinCan\\StatementBase -->
<g id="edge37" class="edge"><title>\\TinCan\\SubStatement&#45;&gt;\\TinCan\\StatementBase</title>
<path fill="none" stroke="black" d="M516.574,-684.432C502.223,-680.545 487.528,-673.999 477.245,-663 383.894,-563.155 491.091,-470.367 405.245,-364 402.854,-361.037 400.122,-358.331 397.16,-355.861"/>
<polygon fill="none" stroke="black" points="399.015,-352.884 388.86,-349.864 394.916,-358.558 399.015,-352.884"/>
</g>
<!-- \\TinCan\\SubStatement&#45;&gt;\\TinCan\\StatementTargetInterface -->
<g id="edge38" class="edge"><title>\\TinCan\\SubStatement&#45;&gt;\\TinCan\\StatementTargetInterface</title>
<path fill="none" stroke="black" stroke-dasharray="1,5" d="M516.823,-685.248C502.137,-681.438 487.176,-674.732 477.245,-663 326.504,-484.917 581.175,-296.249 405.245,-143 360.063,-103.643 329.537,-133.19 270.426,-143 233.222,-149.174 193.026,-162.992 162.459,-175.104"/>
<polygon fill="none" stroke="black" points="160.854,-171.978 152.889,-178.965 163.473,-178.47 160.854,-171.978"/>
</g>
<!-- \\TinCan\\Util -->
<g id="node27" class="node"><title>\\TinCan\\Util</title>
<polygon fill="none" stroke="black" points="591.458,-330 537.458,-330 537.458,-294 591.458,-294 591.458,-330"/>
<text text-anchor="middle" x="564.458" y="-308.7" font-family="Courier,monospace" font-size="11.00">Util</text>
</g>
<!-- \\TinCan\\Verb -->
<g id="node28" class="node"><title>\\TinCan\\Verb</title>
<polygon fill="none" stroke="black" points="364.835,-640 310.835,-640 310.835,-604 364.835,-604 364.835,-640"/>
<text text-anchor="middle" x="337.835" y="-618.7" font-family="Courier,monospace" font-size="11.00">Verb</text>
</g>
<!-- \\TinCan\\Verb&#45;&gt;\\TinCan\\ComparableInterface -->
<g id="edge40" class="edge"><title>\\TinCan\\Verb&#45;&gt;\\TinCan\\ComparableInterface</title>
<path fill="none" stroke="black" stroke-dasharray="1,5" d="M310.696,-614.176C297.933,-609.676 282.719,-603.261 270.426,-595 213.123,-556.492 159.985,-494.58 132.264,-459.496"/>
<polygon fill="none" stroke="black" points="134.689,-456.915 125.777,-451.185 129.171,-461.222 134.689,-456.915"/>
</g>
<!-- \\TinCan\\Verb&#45;&gt;\\TinCan\\VersionableInterface -->
<g id="edge39" class="edge"><title>\\TinCan\\Verb&#45;&gt;\\TinCan\\VersionableInterface</title>
<path fill="none" stroke="black" stroke-dasharray="1,5" d="M310.629,-615.7C282.404,-608.914 236.046,-597.77 195.236,-587.959"/>
<polygon fill="none" stroke="black" points="195.809,-584.497 185.268,-585.563 194.172,-591.303 195.809,-584.497"/>
</g>
<!-- \\TinCan\\Version -->
<g id="node29" class="node"><title>\\TinCan\\Version</title>
<polygon fill="none" stroke="black" points="595.666,-276 533.25,-276 533.25,-240 595.666,-240 595.666,-276"/>
<text text-anchor="middle" x="564.458" y="-254.7" font-family="Courier,monospace" font-size="11.00">Version</text>
</g>
<!-- \\TinCan\\ArraySetterTrait -->
<g id="node34" class="node"><title>\\TinCan\\ArraySetterTrait</title>
<polygon fill="none" stroke="black" points="625.076,-222 503.84,-222 503.84,-186 625.076,-186 625.076,-222"/>
<text text-anchor="middle" x="564.458" y="-200.7" font-family="Courier,monospace" font-size="11.00">ArraySetterTrait</text>
</g>
<!-- \\TinCan\\AsVersionTrait -->
<g id="node35" class="node"><title>\\TinCan\\AsVersionTrait</title>
<polygon fill="none" stroke="black" points="618.874,-168 510.042,-168 510.042,-132 618.874,-132 618.874,-168"/>
<text text-anchor="middle" x="564.458" y="-146.7" font-family="Courier,monospace" font-size="11.00">AsVersionTrait</text>
</g>
<!-- \\TinCan\\FromJSONTrait -->
<g id="node36" class="node"><title>\\TinCan\\FromJSONTrait</title>
<polygon fill="none" stroke="black" points="615.272,-114 513.644,-114 513.644,-78 615.272,-78 615.272,-114"/>
<text text-anchor="middle" x="564.458" y="-92.7" font-family="Courier,monospace" font-size="11.00">FromJSONTrait</text>
</g>
<!-- \\TinCan\\SignatureComparisonTrait -->
<g id="node37" class="node"><title>\\TinCan\\SignatureComparisonTrait</title>
<polygon fill="none" stroke="black" points="651.884,-60 477.032,-60 477.032,-24 651.884,-24 651.884,-60"/>
<text text-anchor="middle" x="564.458" y="-38.7" font-family="Courier,monospace" font-size="11.00">SignatureComparisonTrait</text>
</g>
</g>
</svg>
