<?xml version="1.0" encoding="UTF-8" standalone="no"?>
<!DOCTYPE svg PUBLIC "-//W3C//DTD SVG 1.1//EN"
 "http://www.w3.org/Graphics/SVG/1.1/DTD/svg11.dtd">
<!-- Generated by graphviz version 2.38.0 (20140413.2041)
 -->
<!-- Title: G Pages: 1 -->
<svg width="516pt" height="960pt"
 viewBox="0.00 0.00 515.85 960.00" xmlns="http://www.w3.org/2000/svg" xmlns:xlink="http://www.w3.org/1999/xlink">
<g id="graph0" class="graph" transform="scale(1 1) rotate(0) translate(4 956)">
<title>G</title>
<polygon fill="white" stroke="none" points="-4,4 -4,-956 511.851,-956 511.851,4 -4,4"/>
<g id="clust1" class="cluster"><title>cluster_Global</title>
<path fill="none" stroke="gray" d="M20,-8C20,-8 487.851,-8 487.851,-8 493.851,-8 499.851,-14 499.851,-20 499.851,-20 499.851,-932 499.851,-932 499.851,-938 493.851,-944 487.851,-944 487.851,-944 20,-944 20,-944 14,-944 8,-938 8,-932 8,-932 8,-20 8,-20 8,-14 14,-8 20,-8"/>
<text text-anchor="middle" x="253.926" y="-931.2" font-family="Times,serif" font-size="11.00" fill="gray">\</text>
</g>
<g id="clust2" class="cluster"><title>cluster_\TinCan</title>
<path fill="none" stroke="gray" d="M28,-16C28,-16 479.851,-16 479.851,-16 485.851,-16 491.851,-22 491.851,-28 491.851,-28 491.851,-905 491.851,-905 491.851,-911 485.851,-917 479.851,-917 479.851,-917 28,-917 28,-917 22,-917 16,-911 16,-905 16,-905 16,-28 16,-28 16,-22 22,-16 28,-16"/>
<text text-anchor="middle" x="253.926" y="-904.2" font-family="Times,serif" font-size="11.00" fill="gray">TinCan</text>
</g>
<!-- \\TinCan\\About -->
<g id="node1" class="node"><title>\\TinCan\\About</title>
<polygon fill="none" stroke="black" points="298.137,-674 244.137,-674 244.137,-638 298.137,-638 298.137,-674"/>
<text text-anchor="middle" x="271.137" y="-652.7" font-family="Times,serif" font-size="11.00">About</text>
</g>
<!-- \\TinCan\\VersionableInterface -->
<g id="node31" class="node"><title>\\TinCan\\VersionableInterface</title>
<polygon fill="none" stroke="black" points="140.905,-485 33.9004,-485 33.9004,-449 140.905,-449 140.905,-485"/>
<text text-anchor="middle" x="87.4028" y="-463.7" font-family="Times,serif" font-size="11.00">VersionableInterface</text>
</g>
<!-- \\TinCan\\About&#45;&gt;\\TinCan\\VersionableInterface -->
<g id="edge1" class="edge"><title>\\TinCan\\About&#45;&gt;\\TinCan\\VersionableInterface</title>
<path fill="none" stroke="black" stroke-dasharray="1,5" d="M243.977,-643.293C236.767,-639.215 229.182,-634.352 222.806,-629 174.115,-588.128 129.538,-528.001 105.966,-493.659"/>
<polygon fill="none" stroke="black" points="108.672,-491.413 100.161,-485.102 102.878,-495.343 108.672,-491.413"/>
</g>
<!-- \\TinCan\\Activity -->
<g id="node2" class="node"><title>\\TinCan\\Activity</title>
<polygon fill="none" stroke="black" points="298.137,-134 244.137,-134 244.137,-98 298.137,-98 298.137,-134"/>
<text text-anchor="middle" x="271.137" y="-112.7" font-family="Times,serif" font-size="11.00">Activity</text>
</g>
<!-- \\TinCan\\StatementTargetInterface -->
<g id="node30" class="node"><title>\\TinCan\\StatementTargetInterface</title>
<polygon fill="none" stroke="black" points="150.709,-161 24.097,-161 24.097,-125 150.709,-125 150.709,-161"/>
<text text-anchor="middle" x="87.4028" y="-139.7" font-family="Times,serif" font-size="11.00">StatementTargetInterface</text>
</g>
<!-- \\TinCan\\Activity&#45;&gt;\\TinCan\\StatementTargetInterface -->
<g id="edge3" class="edge"><title>\\TinCan\\Activity&#45;&gt;\\TinCan\\StatementTargetInterface</title>
<path fill="none" stroke="black" stroke-dasharray="1,5" d="M244.099,-119.868C222.414,-123.09 190.45,-127.839 161.117,-132.197"/>
<polygon fill="none" stroke="black" points="160.249,-128.787 150.872,-133.719 161.278,-135.711 160.249,-128.787"/>
</g>
<!-- \\TinCan\\Activity&#45;&gt;\\TinCan\\VersionableInterface -->
<g id="edge2" class="edge"><title>\\TinCan\\Activity&#45;&gt;\\TinCan\\VersionableInterface</title>
<path fill="none" stroke="black" stroke-dasharray="1,5" d="M243.839,-127.009C236.295,-131.15 228.563,-136.473 222.806,-143 143.002,-233.476 106.224,-377.947 93.6711,-438.665"/>
<polygon fill="none" stroke="black" points="90.2001,-438.173 91.6678,-448.666 97.0637,-439.548 90.2001,-438.173"/>
</g>
<!-- \\TinCan\\ActivityDefinition -->
<g id="node3" class="node"><title>\\TinCan\\ActivityDefinition</title>
<polygon fill="none" stroke="black" points="319.301,-620 222.974,-620 222.974,-584 319.301,-584 319.301,-620"/>
<text text-anchor="middle" x="271.137" y="-598.7" font-family="Times,serif" font-size="11.00">ActivityDefinition</text>
</g>
<!-- \\TinCan\\ActivityDefinition&#45;&gt;\\TinCan\\VersionableInterface -->
<g id="edge4" class="edge"><title>\\TinCan\\ActivityDefinition&#45;&gt;\\TinCan\\VersionableInterface</title>
<path fill="none" stroke="black" stroke-dasharray="1,5" d="M236.881,-583.92C232.082,-581.056 227.263,-578.034 222.806,-575 184.459,-548.897 143.287,-514.821 116.762,-491.99"/>
<polygon fill="none" stroke="black" points="118.871,-489.186 109.02,-485.287 114.289,-494.478 118.871,-489.186"/>
</g>
<!-- \\TinCan\\ActivityProfile -->
<g id="node4" class="node"><title>\\TinCan\\ActivityProfile</title>
<polygon fill="none" stroke="black" points="478.549,-782 396.771,-782 396.771,-746 478.549,-746 478.549,-782"/>
<text text-anchor="middle" x="437.66" y="-760.7" font-family="Times,serif" font-size="11.00">ActivityProfile</text>
</g>
<!-- \\TinCan\\Document -->
<g id="node11" class="node"><title>\\TinCan\\Document</title>
<polygon fill="none" stroke="black" points="301.958,-782 240.316,-782 240.316,-746 301.958,-746 301.958,-782"/>
<text text-anchor="start" x="248.536" y="-766.2" font-family="Times,serif" font-size="11.00">«abstract»</text>
<text text-anchor="start" x="248.227" y="-755.2" font-family="Times,serif" font-size="11.00">Document</text>
</g>
<!-- \\TinCan\\ActivityProfile&#45;&gt;\\TinCan\\Document -->
<g id="edge5" class="edge"><title>\\TinCan\\ActivityProfile&#45;&gt;\\TinCan\\Document</title>
<path fill="none" stroke="black" d="M396.834,-764C371.173,-764 337.927,-764 312.217,-764"/>
<polygon fill="none" stroke="black" points="312.059,-760.5 302.059,-764 312.059,-767.5 312.059,-760.5"/>
</g>
<!-- \\TinCan\\Agent -->
<g id="node5" class="node"><title>\\TinCan\\Agent</title>
<polygon fill="none" stroke="black" points="298.137,-242 244.137,-242 244.137,-206 298.137,-206 298.137,-242"/>
<text text-anchor="middle" x="271.137" y="-220.7" font-family="Times,serif" font-size="11.00">Agent</text>
</g>
<!-- \\TinCan\\Agent&#45;&gt;\\TinCan\\StatementTargetInterface -->
<g id="edge7" class="edge"><title>\\TinCan\\Agent&#45;&gt;\\TinCan\\StatementTargetInterface</title>
<path fill="none" stroke="black" stroke-dasharray="1,5" d="M244.099,-212.395C216.557,-200.119 172.436,-180.454 138.182,-165.187"/>
<polygon fill="none" stroke="black" points="139.363,-161.881 128.804,-161.007 136.513,-168.275 139.363,-161.881"/>
</g>
<!-- \\TinCan\\Agent&#45;&gt;\\TinCan\\VersionableInterface -->
<g id="edge6" class="edge"><title>\\TinCan\\Agent&#45;&gt;\\TinCan\\VersionableInterface</title>
<path fill="none" stroke="black" stroke-dasharray="1,5" d="M243.98,-235.887C236.611,-240.006 228.94,-245.096 222.806,-251 163.933,-307.665 119.958,-395.24 100.096,-439.453"/>
<polygon fill="none" stroke="black" points="96.8464,-438.147 96.0069,-448.708 103.249,-440.976 96.8464,-438.147"/>
</g>
<!-- \\TinCan\\AgentAccount -->
<g id="node6" class="node"><title>\\TinCan\\AgentAccount</title>
<polygon fill="none" stroke="black" points="311.284,-566 230.99,-566 230.99,-530 311.284,-530 311.284,-566"/>
<text text-anchor="middle" x="271.137" y="-544.7" font-family="Times,serif" font-size="11.00">AgentAccount</text>
</g>
<!-- \\TinCan\\AgentAccount&#45;&gt;\\TinCan\\VersionableInterface -->
<g id="edge8" class="edge"><title>\\TinCan\\AgentAccount&#45;&gt;\\TinCan\\VersionableInterface</title>
<path fill="none" stroke="black" stroke-dasharray="1,5" d="M230.704,-530.424C203.574,-518.333 167.325,-502.176 138.202,-489.196"/>
<polygon fill="none" stroke="black" points="139.577,-485.977 129.018,-485.102 136.727,-492.37 139.577,-485.977"/>
</g>
<!-- \\TinCan\\AgentProfile -->
<g id="node7" class="node"><title>\\TinCan\\AgentProfile</title>
<polygon fill="none" stroke="black" points="473.879,-728 401.44,-728 401.44,-692 473.879,-692 473.879,-728"/>
<text text-anchor="middle" x="437.66" y="-706.7" font-family="Times,serif" font-size="11.00">AgentProfile</text>
</g>
<!-- \\TinCan\\AgentProfile&#45;&gt;\\TinCan\\Document -->
<g id="edge9" class="edge"><title>\\TinCan\\AgentProfile&#45;&gt;\\TinCan\\Document</title>
<path fill="none" stroke="black" d="M401.366,-721.584C375.045,-730.223 339.077,-742.029 311.77,-750.992"/>
<polygon fill="none" stroke="black" points="310.544,-747.71 302.135,-754.154 312.727,-754.361 310.544,-747.71"/>
</g>
<!-- \\TinCan\\Attachment -->
<g id="node8" class="node"><title>\\TinCan\\Attachment</title>
<polygon fill="none" stroke="black" points="304.953,-512 237.321,-512 237.321,-476 304.953,-476 304.953,-512"/>
<text text-anchor="middle" x="271.137" y="-490.7" font-family="Times,serif" font-size="11.00">Attachment</text>
</g>
<!-- \\TinCan\\Attachment&#45;&gt;\\TinCan\\VersionableInterface -->
<g id="edge10" class="edge"><title>\\TinCan\\Attachment&#45;&gt;\\TinCan\\VersionableInterface</title>
<path fill="none" stroke="black" stroke-dasharray="1,5" d="M237.226,-489.111C213.254,-485.549 180.044,-480.615 151.078,-476.312"/>
<polygon fill="none" stroke="black" points="151.437,-472.827 141.031,-474.819 150.408,-479.751 151.437,-472.827"/>
</g>
<!-- \\TinCan\\Context -->
<g id="node9" class="node"><title>\\TinCan\\Context</title>
<polygon fill="none" stroke="black" points="298.137,-458 244.137,-458 244.137,-422 298.137,-422 298.137,-458"/>
<text text-anchor="middle" x="271.137" y="-436.7" font-family="Times,serif" font-size="11.00">Context</text>
</g>
<!-- \\TinCan\\Context&#45;&gt;\\TinCan\\VersionableInterface -->
<g id="edge11" class="edge"><title>\\TinCan\\Context&#45;&gt;\\TinCan\\VersionableInterface</title>
<path fill="none" stroke="black" stroke-dasharray="1,5" d="M244.099,-443.868C219.922,-447.46 182.967,-452.951 151.128,-457.681"/>
<polygon fill="none" stroke="black" points="150.37,-454.255 140.993,-459.187 151.399,-461.179 150.37,-454.255"/>
</g>
<!-- \\TinCan\\ContextActivities -->
<g id="node10" class="node"><title>\\TinCan\\ContextActivities</title>
<polygon fill="none" stroke="black" points="317.74,-836 224.535,-836 224.535,-800 317.74,-800 317.74,-836"/>
<text text-anchor="middle" x="271.137" y="-814.7" font-family="Times,serif" font-size="11.00">ContextActivities</text>
</g>
<!-- \\TinCan\\ContextActivities&#45;&gt;\\TinCan\\VersionableInterface -->
<g id="edge12" class="edge"><title>\\TinCan\\ContextActivities&#45;&gt;\\TinCan\\VersionableInterface</title>
<path fill="none" stroke="black" stroke-dasharray="1,5" d="M232.652,-799.89C229.057,-797.226 225.684,-794.264 222.806,-791 143.002,-700.524 106.224,-556.053 93.6711,-495.335"/>
<polygon fill="none" stroke="black" points="97.0637,-494.452 91.6678,-485.334 90.2001,-495.827 97.0637,-494.452"/>
</g>
<!-- \\TinCan\\Extensions -->
<g id="node12" class="node"><title>\\TinCan\\Extensions</title>
<polygon fill="none" stroke="black" points="469.936,-890 405.384,-890 405.384,-854 469.936,-854 469.936,-890"/>
<text text-anchor="middle" x="437.66" y="-868.7" font-family="Times,serif" font-size="11.00">Extensions</text>
</g>
<!-- \\TinCan\\Map -->
<g id="node16" class="node"><title>\\TinCan\\Map</title>
<polygon fill="none" stroke="black" points="301.841,-890 240.434,-890 240.434,-854 301.841,-854 301.841,-890"/>
<text text-anchor="start" x="248.536" y="-874.2" font-family="Times,serif" font-size="11.00">«abstract»</text>
<text text-anchor="start" x="261.056" y="-863.2" font-family="Times,serif" font-size="11.00">Map</text>
</g>
<!-- \\TinCan\\Extensions&#45;&gt;\\TinCan\\Map -->
<g id="edge13" class="edge"><title>\\TinCan\\Extensions&#45;&gt;\\TinCan\\Map</title>
<path fill="none" stroke="black" d="M405.327,-872C378.839,-872 340.736,-872 312.065,-872"/>
<polygon fill="none" stroke="black" points="311.968,-868.5 301.968,-872 311.967,-875.5 311.968,-868.5"/>
</g>
<!-- \\TinCan\\Group -->
<g id="node13" class="node"><title>\\TinCan\\Group</title>
<polygon fill="none" stroke="black" points="464.66,-492 410.66,-492 410.66,-456 464.66,-456 464.66,-492"/>
<text text-anchor="middle" x="437.66" y="-470.7" font-family="Times,serif" font-size="11.00">Group</text>
</g>
<!-- \\TinCan\\Group&#45;&gt;\\TinCan\\Agent -->
<g id="edge14" class="edge"><title>\\TinCan\\Group&#45;&gt;\\TinCan\\Agent</title>
<path fill="none" stroke="black" d="M410.449,-462.378C403.545,-458.317 396.601,-453.192 391.469,-447 332.243,-375.553 379.411,-321.847 319.469,-251 316.043,-246.951 311.848,-243.381 307.384,-240.273"/>
<polygon fill="none" stroke="black" points="308.952,-237.129 298.602,-234.865 305.282,-243.089 308.952,-237.129"/>
</g>
<!-- \\TinCan\\LanguageMap -->
<g id="node14" class="node"><title>\\TinCan\\LanguageMap</title>
<polygon fill="none" stroke="black" points="477.191,-836 398.129,-836 398.129,-800 477.191,-800 477.191,-836"/>
<text text-anchor="middle" x="437.66" y="-814.7" font-family="Times,serif" font-size="11.00">LanguageMap</text>
</g>
<!-- \\TinCan\\LanguageMap&#45;&gt;\\TinCan\\Map -->
<g id="edge15" class="edge"><title>\\TinCan\\LanguageMap&#45;&gt;\\TinCan\\Map</title>
<path fill="none" stroke="black" d="M398.087,-830.661C372.063,-839.202 337.823,-850.44 311.613,-859.043"/>
<polygon fill="none" stroke="black" points="310.404,-855.756 301.994,-862.2 312.587,-862.407 310.404,-855.756"/>
</g>
<!-- \\TinCan\\LRSResponse -->
<g id="node15" class="node"><title>\\TinCan\\LRSResponse</title>
<polygon fill="none" stroke="black" points="476.998,-610 398.322,-610 398.322,-574 476.998,-574 476.998,-610"/>
<text text-anchor="middle" x="437.66" y="-588.7" font-family="Times,serif" font-size="11.00">LRSResponse</text>
</g>
<!-- \\TinCan\\Map&#45;&gt;\\TinCan\\VersionableInterface -->
<g id="edge16" class="edge"><title>\\TinCan\\Map&#45;&gt;\\TinCan\\VersionableInterface</title>
<path fill="none" stroke="black" stroke-dasharray="1,5" d="M240.18,-859.198C233.787,-855.375 227.542,-850.658 222.806,-845 132.197,-736.77 100.818,-563.011 91.6752,-495.298"/>
<polygon fill="none" stroke="black" points="95.1449,-494.837 90.3932,-485.368 88.2025,-495.734 95.1449,-494.837"/>
</g>
<!-- \\TinCan\\RemoteLRS -->
<g id="node17" class="node"><title>\\TinCan\\RemoteLRS</title>
<polygon fill="none" stroke="black" points="473.049,-330 402.271,-330 402.271,-294 473.049,-294 473.049,-330"/>
<text text-anchor="middle" x="437.66" y="-308.7" font-family="Times,serif" font-size="11.00">RemoteLRS</text>
</g>
<!-- \\TinCan\\LRSInterface -->
<g id="node29" class="node"><title>\\TinCan\\LRSInterface</title>
<polygon fill="none" stroke="black" points="308.886,-60 233.388,-60 233.388,-24 308.886,-24 308.886,-60"/>
<text text-anchor="middle" x="271.137" y="-38.7" font-family="Times,serif" font-size="11.00">LRSInterface</text>
</g>
<!-- \\TinCan\\RemoteLRS&#45;&gt;\\TinCan\\LRSInterface -->
<g id="edge17" class="edge"><title>\\TinCan\\RemoteLRS&#45;&gt;\\TinCan\\LRSInterface</title>
<path fill="none" stroke="black" stroke-dasharray="1,5" d="M402.453,-295.262C398.38,-292.255 394.574,-288.836 391.469,-285 329.122,-207.986 379.638,-152.727 319.469,-74 317.481,-71.3993 315.219,-68.9373 312.787,-66.6216"/>
<polygon fill="none" stroke="black" points="314.983,-63.895 305.084,-60.1204 310.469,-69.2446 314.983,-63.895"/>
</g>
<!-- \\TinCan\\Result -->
<g id="node18" class="node"><title>\\TinCan\\Result</title>
<polygon fill="none" stroke="black" points="298.137,-350 244.137,-350 244.137,-314 298.137,-314 298.137,-350"/>
<text text-anchor="middle" x="271.137" y="-328.7" font-family="Times,serif" font-size="11.00">Result</text>
</g>
<!-- \\TinCan\\Result&#45;&gt;\\TinCan\\VersionableInterface -->
<g id="edge18" class="edge"><title>\\TinCan\\Result&#45;&gt;\\TinCan\\VersionableInterface</title>
<path fill="none" stroke="black" stroke-dasharray="1,5" d="M243.646,-346.131C236.729,-350.084 229.375,-354.528 222.806,-359 184.459,-385.103 143.287,-419.179 116.762,-442.01"/>
<polygon fill="none" stroke="black" points="114.289,-439.522 109.02,-448.713 118.871,-444.814 114.289,-439.522"/>
</g>
<!-- \\TinCan\\Score -->
<g id="node19" class="node"><title>\\TinCan\\Score</title>
<polygon fill="none" stroke="black" points="298.137,-296 244.137,-296 244.137,-260 298.137,-260 298.137,-296"/>
<text text-anchor="middle" x="271.137" y="-274.7" font-family="Times,serif" font-size="11.00">Score</text>
</g>
<!-- \\TinCan\\Score&#45;&gt;\\TinCan\\VersionableInterface -->
<g id="edge19" class="edge"><title>\\TinCan\\Score&#45;&gt;\\TinCan\\VersionableInterface</title>
<path fill="none" stroke="black" stroke-dasharray="1,5" d="M243.977,-290.707C236.767,-294.785 229.182,-299.648 222.806,-305 174.115,-345.872 129.538,-405.999 105.966,-440.341"/>
<polygon fill="none" stroke="black" points="102.878,-438.657 100.161,-448.898 108.672,-442.587 102.878,-438.657"/>
</g>
<!-- \\TinCan\\State -->
<g id="node20" class="node"><title>\\TinCan\\State</title>
<polygon fill="none" stroke="black" points="464.66,-674 410.66,-674 410.66,-638 464.66,-638 464.66,-674"/>
<text text-anchor="middle" x="437.66" y="-652.7" font-family="Times,serif" font-size="11.00">State</text>
</g>
<!-- \\TinCan\\State&#45;&gt;\\TinCan\\Document -->
<g id="edge20" class="edge"><title>\\TinCan\\State&#45;&gt;\\TinCan\\Document</title>
<path fill="none" stroke="black" d="M410.559,-670.961C404.23,-674.761 397.54,-678.926 391.469,-683 358.254,-705.289 352.906,-715.047 319.469,-737 316.701,-738.817 313.805,-740.642 310.868,-742.439"/>
<polygon fill="none" stroke="black" points="308.822,-739.584 302.021,-747.708 312.403,-745.598 308.822,-739.584"/>
</g>
<!-- \\TinCan\\Statement -->
<g id="node21" class="node"><title>\\TinCan\\Statement</title>
<polygon fill="none" stroke="black" points="467.649,-546 407.671,-546 407.671,-510 467.649,-510 467.649,-546"/>
<text text-anchor="middle" x="437.66" y="-524.7" font-family="Times,serif" font-size="11.00">Statement</text>
</g>
<!-- \\TinCan\\StatementBase -->
<g id="node22" class="node"><title>\\TinCan\\StatementBase</title>
<polygon fill="none" stroke="black" points="312.01,-404 230.265,-404 230.265,-368 312.01,-368 312.01,-404"/>
<text text-anchor="start" x="248.536" y="-388.2" font-family="Times,serif" font-size="11.00">«abstract»</text>
<text text-anchor="start" x="238.451" y="-377.2" font-family="Times,serif" font-size="11.00">StatementBase</text>
</g>
<!-- \\TinCan\\Statement&#45;&gt;\\TinCan\\StatementBase -->
<g id="edge21" class="edge"><title>\\TinCan\\Statement&#45;&gt;\\TinCan\\StatementBase</title>
<path fill="none" stroke="black" d="M407.429,-512.57C401.887,-509.091 396.313,-505.179 391.469,-501 353.205,-467.991 358.063,-445.622 319.469,-413 318.177,-411.908 316.835,-410.838 315.456,-409.79"/>
<polygon fill="none" stroke="black" points="317.45,-406.913 307.246,-404.061 313.444,-412.654 317.45,-406.913"/>
</g>
<!-- \\TinCan\\StatementBase&#45;&gt;\\TinCan\\VersionableInterface -->
<g id="edge22" class="edge"><title>\\TinCan\\StatementBase&#45;&gt;\\TinCan\\VersionableInterface</title>
<path fill="none" stroke="black" stroke-dasharray="1,5" d="M230.255,-403.776C203.102,-415.878 166.968,-431.983 137.966,-444.91"/>
<polygon fill="none" stroke="black" points="136.529,-441.718 128.82,-448.986 139.379,-448.112 136.529,-441.718"/>
</g>
<!-- \\TinCan\\StatementRef -->
<g id="node23" class="node"><title>\\TinCan\\StatementRef</title>
<polygon fill="none" stroke="black" points="309.009,-188 233.266,-188 233.266,-152 309.009,-152 309.009,-188"/>
<text text-anchor="middle" x="271.137" y="-166.7" font-family="Times,serif" font-size="11.00">StatementRef</text>
</g>
<!-- \\TinCan\\StatementRef&#45;&gt;\\TinCan\\StatementTargetInterface -->
<g id="edge24" class="edge"><title>\\TinCan\\StatementRef&#45;&gt;\\TinCan\\StatementTargetInterface</title>
<path fill="none" stroke="black" stroke-dasharray="1,5" d="M232.922,-164.471C212.204,-161.393 185.688,-157.453 161.038,-153.791"/>
<polygon fill="none" stroke="black" points="161.382,-150.304 150.976,-152.296 160.353,-157.228 161.382,-150.304"/>
</g>
<!-- \\TinCan\\StatementRef&#45;&gt;\\TinCan\\VersionableInterface -->
<g id="edge23" class="edge"><title>\\TinCan\\StatementRef&#45;&gt;\\TinCan\\VersionableInterface</title>
<path fill="none" stroke="black" stroke-dasharray="1,5" d="M232.875,-188.313C229.238,-190.939 225.795,-193.837 222.806,-197 153.519,-270.319 112.398,-386.198 96.2907,-439.055"/>
<polygon fill="none" stroke="black" points="92.9019,-438.172 93.4018,-448.755 99.6107,-440.17 92.9019,-438.172"/>
</g>
<!-- \\TinCan\\StatementsResult -->
<g id="node24" class="node"><title>\\TinCan\\StatementsResult</title>
<polygon fill="none" stroke="black" points="484.043,-384 391.277,-384 391.277,-348 484.043,-348 484.043,-384"/>
<text text-anchor="middle" x="437.66" y="-362.7" font-family="Times,serif" font-size="11.00">StatementsResult</text>
</g>
<!-- \\TinCan\\SubStatement -->
<g id="node25" class="node"><title>\\TinCan\\SubStatement</title>
<polygon fill="none" stroke="black" points="476.267,-438 399.053,-438 399.053,-402 476.267,-402 476.267,-438"/>
<text text-anchor="middle" x="437.66" y="-416.7" font-family="Times,serif" font-size="11.00">SubStatement</text>
</g>
<!-- \\TinCan\\SubStatement&#45;&gt;\\TinCan\\StatementBase -->
<g id="edge25" class="edge"><title>\\TinCan\\SubStatement&#45;&gt;\\TinCan\\StatementBase</title>
<path fill="none" stroke="black" d="M398.915,-412.2C376.069,-407.478 346.667,-401.402 321.931,-396.29"/>
<polygon fill="none" stroke="black" points="322.503,-392.835 312.001,-394.238 321.086,-399.69 322.503,-392.835"/>
</g>
<!-- \\TinCan\\SubStatement&#45;&gt;\\TinCan\\StatementTargetInterface -->
<g id="edge26" class="edge"><title>\\TinCan\\SubStatement&#45;&gt;\\TinCan\\StatementTargetInterface</title>
<path fill="none" stroke="black" stroke-dasharray="1,5" d="M399.905,-401.792C396.741,-399.17 393.846,-396.244 391.469,-393 309.398,-281.003 428.377,-175.127 319.469,-89 261.367,-43.0517 170.891,-88.2895 122.183,-119.287"/>
<polygon fill="none" stroke="black" points="120.059,-116.493 113.591,-124.884 123.88,-122.358 120.059,-116.493"/>
</g>
<!-- \\TinCan\\Util -->
<g id="node26" class="node"><title>\\TinCan\\Util</title>
<polygon fill="none" stroke="black" points="464.66,-276 410.66,-276 410.66,-240 464.66,-240 464.66,-276"/>
<text text-anchor="middle" x="437.66" y="-254.7" font-family="Times,serif" font-size="11.00">Util</text>
</g>
<!-- \\TinCan\\Verb -->
<g id="node27" class="node"><title>\\TinCan\\Verb</title>
<polygon fill="none" stroke="black" points="298.137,-728 244.137,-728 244.137,-692 298.137,-692 298.137,-728"/>
<text text-anchor="middle" x="271.137" y="-706.7" font-family="Times,serif" font-size="11.00">Verb</text>
</g>
<!-- \\TinCan\\Verb&#45;&gt;\\TinCan\\VersionableInterface -->
<g id="edge27" class="edge"><title>\\TinCan\\Verb&#45;&gt;\\TinCan\\VersionableInterface</title>
<path fill="none" stroke="black" stroke-dasharray="1,5" d="M243.98,-698.113C236.611,-693.994 228.94,-688.904 222.806,-683 163.933,-626.335 119.958,-538.76 100.096,-494.547"/>
<polygon fill="none" stroke="black" points="103.249,-493.024 96.0069,-485.292 96.8464,-495.853 103.249,-493.024"/>
</g>
<!-- \\TinCan\\Version -->
<g id="node28" class="node"><title>\\TinCan\\Version</title>
<polygon fill="none" stroke="black" points="464.66,-222 410.66,-222 410.66,-186 464.66,-186 464.66,-222"/>
<text text-anchor="middle" x="437.66" y="-200.7" font-family="Times,serif" font-size="11.00">Version</text>
</g>
<!-- \\TinCan\\ArraySetterTrait -->
<g id="node32" class="node"><title>\\TinCan\\ArraySetterTrait</title>
<polygon fill="none" stroke="black" points="481.966,-168 393.354,-168 393.354,-132 481.966,-132 481.966,-168"/>
<text text-anchor="middle" x="437.66" y="-146.7" font-family="Times,serif" font-size="11.00">ArraySetterTrait</text>
</g>
<!-- \\TinCan\\AsVersionTrait -->
<g id="node33" class="node"><title>\\TinCan\\AsVersionTrait</title>
<polygon fill="none" stroke="black" points="478.987,-114 396.333,-114 396.333,-78 478.987,-78 478.987,-114"/>
<text text-anchor="middle" x="437.66" y="-92.7" font-family="Times,serif" font-size="11.00">AsVersionTrait</text>
</g>
<!-- \\TinCan\\FromJSONTrait -->
<g id="node34" class="node"><title>\\TinCan\\FromJSONTrait</title>
<polygon fill="none" stroke="black" points="481.279,-60 394.041,-60 394.041,-24 481.279,-24 481.279,-60"/>
<text text-anchor="middle" x="437.66" y="-38.7" font-family="Times,serif" font-size="11.00">FromJSONTrait</text>
</g>
</g>
</svg>
